<svg width="144" height="25" viewBox="0 0 144 25" fill="none" xmlns="http://www.w3.org/2000/svg">
<circle cx="12" cy="12.8728" r="12" fill="white"/>
<path d="M16.7273 4.8728H14.3471C13.295 4.8728 12.286 5.29423 11.5421 6.04438C10.7981 6.79452 10.3802 7.81194 10.3802 8.8728V11.2728H8V14.4728H10.3802V20.8728H13.5537V14.4728H15.9339L16.7273 11.2728H13.5537V8.8728C13.5537 8.66063 13.6373 8.45715 13.7861 8.30712C13.9349 8.15709 14.1367 8.0728 14.3471 8.0728H16.7273V4.8728Z" stroke="black" stroke-linecap="round" stroke-linejoin="round"/>
<circle cx="52" cy="12.8728" r="12" fill="white"/>
<path d="M59 5.8728L50 14.8728" stroke="black" stroke-linecap="round" stroke-linejoin="round"/>
<path d="M59 5.8728L53.4 21.8728L50.2 14.6728L43 11.4728L59 5.8728Z" stroke="black" stroke-linecap="round" stroke-linejoin="round"/>
<circle cx="92" cy="12.8728" r="12" fill="white"/>
<path fill-rule="evenodd" clip-rule="evenodd" d="M88.2675 5.8728C86.4629 5.8728 85 7.3357 85 9.14028V16.6752C85 18.4798 86.4629 19.9427 88.2675 19.9427H95.8024C97.607 19.9427 99.0699 18.4798 99.0699 16.6752V9.14028C99.0699 7.3357 97.607 5.8728 95.8024 5.8728H88.2675ZM84 9.14028C84 6.78342 85.9106 4.8728 88.2675 4.8728H95.8024C98.1593 4.8728 100.07 6.78342 100.07 9.14028V16.6752C100.07 19.0321 98.1593 20.9427 95.8024 20.9427H88.2675C85.9106 20.9427 84 19.0321 84 16.6752V9.14028ZM92.4364 10.3882C91.9134 10.3107 91.3792 10.4 90.9098 10.6436C90.4404 10.8871 90.0598 11.2724 89.8221 11.7448C89.5844 12.2171 89.5016 12.7523 89.5856 13.2744C89.6696 13.7965 89.9161 14.2788 90.29 14.6527C90.6639 15.0266 91.1462 15.2731 91.6683 15.3571C92.1903 15.4411 92.7256 15.3583 93.1979 15.1206C93.6703 14.8829 94.0556 14.5022 94.2991 14.0329C94.5427 13.5635 94.632 13.0293 94.5545 12.5063C94.4753 11.9727 94.2267 11.4788 93.8453 11.0974C93.4639 10.716 92.97 10.4673 92.4364 10.3882ZM90.4492 9.75593C91.1053 9.41551 91.852 9.29063 92.5831 9.39905C93.3289 9.50963 94.0193 9.85715 94.5524 10.3903C95.0855 10.9234 95.4331 11.6138 95.5436 12.3596C95.6521 13.0907 95.5272 13.8374 95.1868 14.4935C94.8463 15.1495 94.3077 15.6815 93.6475 16.0138C92.9873 16.3461 92.2391 16.4618 91.5094 16.3444C90.7797 16.2269 90.1055 15.8824 89.5829 15.3598C89.0603 14.8371 88.7157 14.163 88.5983 13.4333C88.4809 12.7036 88.5966 11.9554 88.9289 11.2952C89.2612 10.635 89.7932 10.0963 90.4492 9.75593ZM96.1792 8.26354C95.903 8.26354 95.6792 8.4874 95.6792 8.76354C95.6792 9.03968 95.903 9.26354 96.1792 9.26354H96.1878C96.464 9.26354 96.6878 9.03968 96.6878 8.76354C96.6878 8.4874 96.464 8.26354 96.1878 8.26354H96.1792Z" fill="black"/>
<circle cx="132" cy="12.8728" r="12" fill="white"/>
<path d="M127 7.3728C127 6.70976 127.263 6.07388 127.732 5.60504C128.201 5.13619 128.837 4.8728 129.5 4.8728H132V9.8728H129.5C128.837 9.8728 128.201 9.60941 127.732 9.14057C127.263 8.67173 127 8.03584 127 7.3728Z" stroke="black" stroke-linecap="round" stroke-linejoin="round"/>
<path d="M132 4.8728H134.5C134.828 4.8728 135.153 4.93747 135.457 5.0631C135.76 5.18874 136.036 5.37289 136.268 5.60504C136.5 5.83718 136.684 6.11278 136.81 6.41609C136.935 6.71941 137 7.0445 137 7.3728C137 7.70111 136.935 8.0262 136.81 8.32951C136.684 8.63283 136.5 8.90842 136.268 9.14057C136.036 9.37272 135.76 9.55687 135.457 9.6825C135.153 9.80814 134.828 9.8728 134.5 9.8728H132V4.8728Z" stroke="black" stroke-linecap="round" stroke-linejoin="round"/>
<path d="M132 12.3728C132 12.0445 132.065 11.7194 132.19 11.4161C132.316 11.1128 132.5 10.8372 132.732 10.605C132.964 10.3729 133.24 10.1887 133.543 10.0631C133.847 9.93747 134.172 9.8728 134.5 9.8728C134.828 9.8728 135.153 9.93747 135.457 10.0631C135.76 10.1887 136.036 10.3729 136.268 10.605C136.5 10.8372 136.684 11.1128 136.81 11.4161C136.935 11.7194 137 12.0445 137 12.3728C137 12.7011 136.935 13.0262 136.81 13.3295C136.684 13.6328 136.5 13.9084 136.268 14.1406C136.036 14.3727 135.76 14.5569 135.457 14.6825C135.153 14.8081 134.828 14.8728 134.5 14.8728C134.172 14.8728 133.847 14.8081 133.543 14.6825C133.24 14.5569 132.964 14.3727 132.732 14.1406C132.5 13.9084 132.316 13.6328 132.19 13.3295C132.065 13.0262 132 12.7011 132 12.3728V12.3728Z" stroke="black" stroke-linecap="round" stroke-linejoin="round"/>
<path d="M127 17.3728C127 16.7098 127.263 16.0739 127.732 15.605C128.201 15.1362 128.837 14.8728 129.5 14.8728H132V17.3728C132 18.0358 131.737 18.6717 131.268 19.1406C130.799 19.6094 130.163 19.8728 129.5 19.8728C128.837 19.8728 128.201 19.6094 127.732 19.1406C127.263 18.6717 127 18.0358 127 17.3728Z" stroke="black" stroke-linecap="round" stroke-linejoin="round"/>
<path d="M127 12.3728C127 11.7098 127.263 11.0739 127.732 10.605C128.201 10.1362 128.837 9.8728 129.5 9.8728H132V14.8728H129.5C128.837 14.8728 128.201 14.6094 127.732 14.1406C127.263 13.6717 127 13.0358 127 12.3728Z" stroke="black" stroke-linecap="round" stroke-linejoin="round"/>
</svg>
