<svg width="35" height="35" viewBox="0 0 35 35" fill="none" xmlns="http://www.w3.org/2000/svg">
<g clip-path="url(#clip0_157_1319)">
<path d="M17.5003 32.0834C9.44595 32.0834 2.91699 25.5544 2.91699 17.5C2.91699 9.44565 9.44595 2.91669 17.5003 2.91669C25.5547 2.91669 32.0837 9.44565 32.0837 17.5C32.0837 25.5544 25.5547 32.0834 17.5003 32.0834ZM12.9649 19.2063L12.9839 19.1961L14.2526 23.3815C14.4159 23.835 14.6405 23.9167 14.9132 23.8788C15.1874 23.8423 15.3318 23.695 15.5112 23.5229L17.2437 21.8488L20.9624 24.6021C21.642 24.9769 22.1305 24.7829 22.2997 23.9721L24.7162 12.565C24.983 11.5034 24.5164 11.0775 23.6924 11.4159L9.49845 16.8992C8.53012 17.2871 8.53595 17.8296 9.32345 18.0702L12.9649 19.2077V19.2063Z" fill="#314FFC" fill-opacity="0.96"/>
</g>
<defs>
<clipPath id="clip0_157_1319">
<rect width="35" height="35" fill="white"/>
</clipPath>
</defs>
</svg>
