<svg width="24" height="25" viewBox="0 0 24 25" fill="none" xmlns="http://www.w3.org/2000/svg">
<g clip-path="url(#clip0_71_3441)">
<path d="M15 10.1492L19.553 7.87317C19.7054 7.797 19.8748 7.76105 20.045 7.76871C20.2152 7.77638 20.3806 7.82741 20.5256 7.91697C20.6706 8.00653 20.7902 8.13164 20.8733 8.28044C20.9563 8.42923 20.9999 8.59678 21 8.76717V15.5312C20.9999 15.7016 20.9563 15.8691 20.8733 16.0179C20.7902 16.1667 20.6706 16.2918 20.5256 16.3814C20.3806 16.4709 20.2152 16.522 20.045 16.5296C19.8748 16.5373 19.7054 16.5013 19.553 16.4252L15 14.1492V10.1492Z" stroke="#072D4B" stroke-width="2" stroke-linecap="round" stroke-linejoin="round"/>
<path d="M13 6.14917H5C3.89543 6.14917 3 7.0446 3 8.14917V16.1492C3 17.2537 3.89543 18.1492 5 18.1492H13C14.1046 18.1492 15 17.2537 15 16.1492V8.14917C15 7.0446 14.1046 6.14917 13 6.14917Z" stroke="#072D4B" stroke-width="2" stroke-linecap="round" stroke-linejoin="round"/>
</g>
<defs>
<clipPath id="clip0_71_3441">
<rect width="24" height="24" fill="white" transform="translate(0 0.14917)"/>
</clipPath>
</defs>
</svg>
