<svg width="35" height="35" viewBox="0 0 35 35" fill="none" xmlns="http://www.w3.org/2000/svg">
<g clip-path="url(#clip0_157_1301)">
<path d="M17.5003 2.91669C9.44595 2.91669 2.91699 9.44565 2.91699 17.5C2.91699 24.7786 8.25012 30.8117 15.2224 31.9069V21.7146H11.5182V17.5H15.2224V14.2873C15.2224 10.6327 17.3982 8.6144 20.7305 8.6144C22.3259 8.6144 23.9943 8.89877 23.9943 8.89877V12.4863H22.1568C20.3441 12.4863 19.7797 13.6106 19.7797 14.7642V17.5H23.8237L23.1776 21.7146H19.7797V31.9069C26.7505 30.8131 32.0837 24.7771 32.0837 17.5C32.0837 9.44565 25.5547 2.91669 17.5003 2.91669Z" fill="#000CFF"/>
</g>
<defs>
<clipPath id="clip0_157_1301">
<rect width="35" height="35" fill="white"/>
</clipPath>
</defs>
</svg>
