<svg width="24" height="25" viewBox="0 0 24 25" fill="none" xmlns="http://www.w3.org/2000/svg">
<path d="M20 12.1492V22.1492H4V12.1492" stroke="white" stroke-width="2" stroke-linecap="round" stroke-linejoin="round"/>
<path d="M22 7.14917H2V12.1492H22V7.14917Z" stroke="white" stroke-width="2" stroke-linecap="round" stroke-linejoin="round"/>
<path d="M12 22.1492V7.14917" stroke="white" stroke-width="2" stroke-linecap="round" stroke-linejoin="round"/>
<path d="M12 7.14917H7.5C6.83696 7.14917 6.20107 6.88578 5.73223 6.41694C5.26339 5.9481 5 5.31221 5 4.64917C5 3.98613 5.26339 3.35024 5.73223 2.8814C6.20107 2.41256 6.83696 2.14917 7.5 2.14917C11 2.14917 12 7.14917 12 7.14917Z" stroke="white" stroke-width="2" stroke-linecap="round" stroke-linejoin="round"/>
<path d="M12 7.14917H16.5C17.163 7.14917 17.7989 6.88578 18.2678 6.41694C18.7366 5.9481 19 5.31221 19 4.64917C19 3.98613 18.7366 3.35024 18.2678 2.8814C17.7989 2.41256 17.163 2.14917 16.5 2.14917C13 2.14917 12 7.14917 12 7.14917Z" stroke="white" stroke-width="2" stroke-linecap="round" stroke-linejoin="round"/>
</svg>
