<svg width="361" height="16" viewBox="0 0 361 16" fill="none" xmlns="http://www.w3.org/2000/svg">
<path d="M6.36035 2.90698H7.5791V9.15942C7.5791 9.85343 7.42464 10.4311 7.11572 10.8923C6.8068 11.3536 6.39632 11.7006 5.88428 11.9333C5.37646 12.1619 4.82422 12.2761 4.22754 12.2761C3.60124 12.2761 3.03418 12.1619 2.52637 11.9333C2.02279 11.7006 1.62288 11.3536 1.32666 10.8923C1.03467 10.4311 0.888672 9.85343 0.888672 9.15942V2.90698H2.10107V9.15942C2.10107 9.64185 2.18994 10.0396 2.36768 10.3528C2.54541 10.6659 2.79297 10.8987 3.11035 11.051C3.43197 11.2034 3.80436 11.2795 4.22754 11.2795C4.65495 11.2795 5.02734 11.2034 5.34473 11.051C5.66634 10.8987 5.91602 10.6659 6.09375 10.3528C6.27148 10.0396 6.36035 9.64185 6.36035 9.15942V2.90698ZM14.4282 9.81323C14.4282 9.59741 14.3944 9.40698 14.3267 9.24194C14.2632 9.07267 14.1489 8.92033 13.9839 8.78491C13.8231 8.6495 13.5988 8.52043 13.311 8.39771C13.0275 8.27498 12.6678 8.15015 12.2319 8.02319C11.7749 7.88778 11.3623 7.73755 10.9941 7.57251C10.626 7.40324 10.3107 7.21069 10.0483 6.99487C9.78597 6.77905 9.58496 6.53149 9.44531 6.2522C9.30566 5.9729 9.23584 5.6534 9.23584 5.2937C9.23584 4.934 9.3099 4.60181 9.45801 4.29712C9.60612 3.99243 9.81771 3.72795 10.0928 3.50366C10.3721 3.27515 10.7043 3.09741 11.0894 2.97046C11.4744 2.84351 11.904 2.78003 12.3779 2.78003C13.0719 2.78003 13.6602 2.91333 14.1426 3.17993C14.6292 3.4423 14.9995 3.78719 15.2534 4.2146C15.5073 4.63778 15.6343 5.09058 15.6343 5.573H14.4155C14.4155 5.22599 14.3415 4.91919 14.1934 4.65259C14.0452 4.38175 13.821 4.17017 13.5205 4.01782C13.2201 3.86125 12.8392 3.78296 12.3779 3.78296C11.9421 3.78296 11.5824 3.84855 11.2988 3.97974C11.0153 4.11092 10.8037 4.28866 10.6641 4.51294C10.5286 4.73722 10.4609 4.99325 10.4609 5.28101C10.4609 5.47567 10.5011 5.6534 10.5815 5.81421C10.6662 5.97078 10.7952 6.11678 10.9688 6.2522C11.1465 6.38761 11.3708 6.51245 11.6416 6.62671C11.9167 6.74097 12.2446 6.85099 12.6255 6.95679C13.1502 7.1049 13.603 7.26994 13.9839 7.4519C14.3647 7.63387 14.6779 7.83911 14.9233 8.06763C15.173 8.29191 15.3571 8.54793 15.4756 8.83569C15.5983 9.11922 15.6597 9.44084 15.6597 9.80054C15.6597 10.1772 15.5835 10.5178 15.4312 10.8225C15.2788 11.1272 15.0609 11.3875 14.7773 11.6033C14.4938 11.8191 14.1532 11.9862 13.7554 12.1047C13.3618 12.219 12.9217 12.2761 12.4351 12.2761C12.0076 12.2761 11.5866 12.2169 11.1719 12.0984C10.7614 11.9799 10.3869 11.8022 10.0483 11.5652C9.71403 11.3282 9.44531 11.0362 9.24219 10.6892C9.04329 10.338 8.94385 9.93172 8.94385 9.47046H10.1626C10.1626 9.78784 10.224 10.0608 10.3467 10.2893C10.4694 10.5136 10.6366 10.6998 10.8481 10.8479C11.064 10.996 11.3073 11.106 11.5781 11.178C11.8532 11.2457 12.1388 11.2795 12.4351 11.2795C12.8625 11.2795 13.2243 11.2203 13.5205 11.1018C13.8167 10.9833 14.041 10.814 14.1934 10.594C14.3499 10.3739 14.4282 10.1137 14.4282 9.81323ZM19.7222 12.1492H17.7925L17.8052 11.1526H19.7222C20.3823 11.1526 20.9325 11.0151 21.3726 10.74C21.8127 10.4607 22.1427 10.0714 22.3628 9.57202C22.5871 9.06844 22.6992 8.48022 22.6992 7.80737V7.24243C22.6992 6.71346 22.6357 6.24373 22.5088 5.83325C22.3818 5.41854 22.1956 5.06942 21.9502 4.78589C21.7048 4.49813 21.4043 4.28019 21.0488 4.13208C20.6976 3.98397 20.2935 3.90991 19.8364 3.90991H17.7544V2.90698H19.8364C20.4416 2.90698 20.9938 3.00854 21.4932 3.21167C21.9925 3.41056 22.422 3.70044 22.7817 4.0813C23.1457 4.45793 23.425 4.91496 23.6196 5.45239C23.8143 5.9856 23.9116 6.58651 23.9116 7.25513V7.80737C23.9116 8.47599 23.8143 9.07902 23.6196 9.61646C23.425 10.1497 23.1436 10.6046 22.7754 10.9812C22.4115 11.3578 21.9714 11.6477 21.4551 11.8508C20.943 12.0497 20.3654 12.1492 19.7222 12.1492ZM18.4463 2.90698V12.1492H17.2212V2.90698H18.4463ZM34.1631 5.96021V6.98218H28.8691V5.96021H34.1631ZM34.1631 8.59448V9.61646H28.8691V8.59448H34.1631ZM42.8911 2.8562V12.1492H41.7168V4.32251L39.3491 5.18579V4.12573L42.707 2.8562H42.8911ZM52.146 6.79175V8.20093C52.146 8.95841 52.0783 9.59741 51.9429 10.1179C51.8075 10.6384 51.6128 11.0574 51.3589 11.3748C51.105 11.6921 50.7982 11.9228 50.4385 12.0667C50.083 12.2063 49.681 12.2761 49.2324 12.2761C48.877 12.2761 48.549 12.2317 48.2485 12.1428C47.9481 12.054 47.6772 11.9122 47.436 11.7175C47.1991 11.5186 46.9959 11.2605 46.8267 10.9431C46.6574 10.6257 46.5283 10.2406 46.4395 9.78784C46.3506 9.33504 46.3062 8.80607 46.3062 8.20093V6.79175C46.3062 6.03426 46.3739 5.3995 46.5093 4.88745C46.6489 4.37541 46.8457 3.96493 47.0996 3.65601C47.3535 3.34285 47.6582 3.11857 48.0137 2.98315C48.3734 2.84774 48.7754 2.78003 49.2197 2.78003C49.5794 2.78003 49.9095 2.82446 50.21 2.91333C50.5146 2.99797 50.7855 3.1355 51.0225 3.32593C51.2594 3.51213 51.4604 3.7618 51.6255 4.07495C51.7948 4.38387 51.9238 4.76261 52.0127 5.21118C52.1016 5.65975 52.146 6.1866 52.146 6.79175ZM50.9653 8.39136V6.59497C50.9653 6.18026 50.9399 5.81632 50.8892 5.50317C50.8426 5.18579 50.7728 4.91496 50.6797 4.69067C50.5866 4.46639 50.4681 4.28442 50.3242 4.14478C50.1846 4.00513 50.0216 3.90356 49.8354 3.84009C49.6535 3.77238 49.4482 3.73853 49.2197 3.73853C48.9404 3.73853 48.6929 3.79142 48.4771 3.89722C48.2612 3.99878 48.0793 4.1617 47.9312 4.38599C47.7873 4.61027 47.6772 4.90438 47.6011 5.26831C47.5249 5.63224 47.4868 6.07446 47.4868 6.59497V8.39136C47.4868 8.80607 47.5101 9.17212 47.5566 9.4895C47.6074 9.80688 47.6815 10.0819 47.7788 10.3147C47.8761 10.5432 47.9946 10.7315 48.1343 10.8796C48.2739 11.0278 48.4347 11.1378 48.6167 11.2097C48.8029 11.2774 49.0081 11.3113 49.2324 11.3113C49.5202 11.3113 49.772 11.2563 49.9878 11.1462C50.2036 11.0362 50.3835 10.8648 50.5273 10.6321C50.6755 10.3951 50.7855 10.0925 50.8574 9.72437C50.9294 9.35197 50.9653 8.90763 50.9653 8.39136ZM59.4839 9.64819C59.4839 10.211 59.3527 10.6892 59.0903 11.0828C58.8322 11.4721 58.481 11.7683 58.0366 11.9714C57.5965 12.1746 57.0993 12.2761 56.5449 12.2761C55.9906 12.2761 55.4912 12.1746 55.0469 11.9714C54.6025 11.7683 54.2513 11.4721 53.9932 11.0828C53.735 10.6892 53.606 10.211 53.606 9.64819C53.606 9.28003 53.6758 8.9436 53.8154 8.63892C53.9593 8.33 54.1603 8.06128 54.4185 7.83276C54.6808 7.60425 54.9897 7.42863 55.3452 7.30591C55.7049 7.17896 56.1006 7.11548 56.5322 7.11548C57.0993 7.11548 57.605 7.2255 58.0493 7.44556C58.4937 7.66138 58.8428 7.95972 59.0967 8.34058C59.3548 8.72144 59.4839 9.15731 59.4839 9.64819ZM58.3032 9.6228C58.3032 9.28003 58.2292 8.97746 58.0811 8.71509C57.9329 8.44849 57.7256 8.24113 57.459 8.09302C57.1924 7.94491 56.8835 7.87085 56.5322 7.87085C56.1725 7.87085 55.8615 7.94491 55.5991 8.09302C55.341 8.24113 55.14 8.44849 54.9961 8.71509C54.8522 8.97746 54.7803 9.28003 54.7803 9.6228C54.7803 9.97827 54.8501 10.283 54.9897 10.5369C55.1336 10.7865 55.3368 10.9791 55.5991 11.1145C55.8657 11.2457 56.181 11.3113 56.5449 11.3113C56.9089 11.3113 57.222 11.2457 57.4844 11.1145C57.7467 10.9791 57.9478 10.7865 58.0874 10.5369C58.2313 10.283 58.3032 9.97827 58.3032 9.6228ZM59.2681 5.31274C59.2681 5.76131 59.1496 6.16545 58.9126 6.52515C58.6756 6.88485 58.3519 7.16838 57.9414 7.37573C57.5309 7.58309 57.0654 7.68677 56.5449 7.68677C56.016 7.68677 55.5441 7.58309 55.1294 7.37573C54.7189 7.16838 54.3973 6.88485 54.1646 6.52515C53.9318 6.16545 53.8154 5.76131 53.8154 5.31274C53.8154 4.77531 53.9318 4.31828 54.1646 3.94165C54.4015 3.56502 54.7253 3.27726 55.1357 3.07837C55.5462 2.87948 56.0138 2.78003 56.5386 2.78003C57.0675 2.78003 57.5373 2.87948 57.9478 3.07837C58.3582 3.27726 58.6799 3.56502 58.9126 3.94165C59.1496 4.31828 59.2681 4.77531 59.2681 5.31274ZM58.0938 5.33179C58.0938 5.02287 58.0282 4.74992 57.897 4.51294C57.7658 4.27596 57.5838 4.08976 57.3511 3.95435C57.1183 3.8147 56.8475 3.74487 56.5386 3.74487C56.2297 3.74487 55.9588 3.81047 55.7261 3.94165C55.4976 4.0686 55.3177 4.25057 55.1865 4.48755C55.0596 4.72453 54.9961 5.00594 54.9961 5.33179C54.9961 5.64917 55.0596 5.92635 55.1865 6.16333C55.3177 6.40031 55.4997 6.58439 55.7324 6.71558C55.9652 6.84676 56.236 6.91235 56.5449 6.91235C56.8538 6.91235 57.1226 6.84676 57.3511 6.71558C57.5838 6.58439 57.7658 6.40031 57.897 6.16333C58.0282 5.92635 58.0938 5.64917 58.0938 5.33179ZM62.1372 11.1653H62.2578C62.9349 11.1653 63.485 11.0701 63.9082 10.8796C64.3314 10.6892 64.6572 10.4332 64.8857 10.1116C65.1143 9.78996 65.2708 9.42814 65.3555 9.02612C65.4401 8.61987 65.4824 8.20304 65.4824 7.77563V6.36011C65.4824 5.94116 65.4338 5.56877 65.3364 5.24292C65.2433 4.91707 65.1121 4.64412 64.9429 4.42407C64.7778 4.20402 64.5895 4.03687 64.3779 3.92261C64.1663 3.80835 63.9421 3.75122 63.7051 3.75122C63.4342 3.75122 63.1909 3.80623 62.9751 3.91626C62.7635 4.02205 62.5837 4.17228 62.4355 4.36694C62.2917 4.5616 62.1816 4.79012 62.1055 5.05249C62.0293 5.31486 61.9912 5.6005 61.9912 5.90942C61.9912 6.18449 62.0251 6.45109 62.0928 6.70923C62.1605 6.96737 62.2642 7.20011 62.4038 7.40747C62.5435 7.61483 62.717 7.77987 62.9243 7.90259C63.1359 8.02108 63.3835 8.08032 63.667 8.08032C63.9294 8.08032 64.1748 8.02954 64.4033 7.92798C64.6361 7.82218 64.8413 7.68042 65.019 7.50269C65.201 7.32072 65.3449 7.11548 65.4507 6.88696C65.5607 6.65845 65.6242 6.41935 65.6411 6.16968H66.1997C66.1997 6.52091 66.1299 6.86792 65.9902 7.21069C65.8548 7.54924 65.6644 7.85815 65.4189 8.13745C65.1735 8.41675 64.8857 8.64103 64.5557 8.8103C64.2256 8.97534 63.8659 9.05786 63.4766 9.05786C63.0195 9.05786 62.6239 8.96899 62.2896 8.79126C61.9552 8.61353 61.6802 8.37655 61.4644 8.08032C61.2528 7.7841 61.0941 7.45402 60.9883 7.09009C60.8867 6.72192 60.8359 6.34953 60.8359 5.9729C60.8359 5.5328 60.8973 5.1202 61.02 4.73511C61.1427 4.35002 61.3247 4.01147 61.5659 3.71948C61.8071 3.42326 62.1055 3.19263 62.4609 3.02759C62.8206 2.86255 63.2354 2.78003 63.7051 2.78003C64.234 2.78003 64.6847 2.88582 65.0571 3.09741C65.4295 3.309 65.7321 3.59253 65.9648 3.948C66.2018 4.30347 66.3753 4.70337 66.4854 5.14771C66.5954 5.59204 66.6504 6.04907 66.6504 6.5188V6.94409C66.6504 7.42228 66.6187 7.90894 66.5552 8.40405C66.4959 8.89494 66.3796 9.36466 66.2061 9.81323C66.0368 10.2618 65.7892 10.6638 65.4634 11.0193C65.1375 11.3705 64.7122 11.6498 64.1875 11.8572C63.667 12.0603 63.0238 12.1619 62.2578 12.1619H62.1372V11.1653ZM72.1411 2.8562V12.1492H70.9668V4.32251L68.5991 5.18579V4.12573L71.957 2.8562H72.1411ZM75.7402 11.5271C75.7402 11.3282 75.8016 11.1611 75.9243 11.0256C76.0513 10.886 76.2332 10.8162 76.4702 10.8162C76.7072 10.8162 76.887 10.886 77.0098 11.0256C77.1367 11.1611 77.2002 11.3282 77.2002 11.5271C77.2002 11.7218 77.1367 11.8868 77.0098 12.0222C76.887 12.1576 76.7072 12.2253 76.4702 12.2253C76.2332 12.2253 76.0513 12.1576 75.9243 12.0222C75.8016 11.8868 75.7402 11.7218 75.7402 11.5271ZM80.1899 11.1653H80.3105C80.9876 11.1653 81.5378 11.0701 81.9609 10.8796C82.3841 10.6892 82.71 10.4332 82.9385 10.1116C83.167 9.78996 83.3236 9.42814 83.4082 9.02612C83.4928 8.61987 83.5352 8.20304 83.5352 7.77563V6.36011C83.5352 5.94116 83.4865 5.56877 83.3892 5.24292C83.2961 4.91707 83.1649 4.64412 82.9956 4.42407C82.8306 4.20402 82.6423 4.03687 82.4307 3.92261C82.2191 3.80835 81.9948 3.75122 81.7578 3.75122C81.487 3.75122 81.2437 3.80623 81.0278 3.91626C80.8162 4.02205 80.6364 4.17228 80.4883 4.36694C80.3444 4.5616 80.2344 4.79012 80.1582 5.05249C80.082 5.31486 80.0439 5.6005 80.0439 5.90942C80.0439 6.18449 80.0778 6.45109 80.1455 6.70923C80.2132 6.96737 80.3169 7.20011 80.4565 7.40747C80.5962 7.61483 80.7697 7.77987 80.9771 7.90259C81.1886 8.02108 81.4362 8.08032 81.7197 8.08032C81.9821 8.08032 82.2275 8.02954 82.4561 7.92798C82.6888 7.82218 82.894 7.68042 83.0718 7.50269C83.2537 7.32072 83.3976 7.11548 83.5034 6.88696C83.6134 6.65845 83.6769 6.41935 83.6938 6.16968H84.2524C84.2524 6.52091 84.1826 6.86792 84.043 7.21069C83.9076 7.54924 83.7171 7.85815 83.4717 8.13745C83.2262 8.41675 82.9385 8.64103 82.6084 8.8103C82.2783 8.97534 81.9186 9.05786 81.5293 9.05786C81.0723 9.05786 80.6766 8.96899 80.3423 8.79126C80.008 8.61353 79.7329 8.37655 79.5171 8.08032C79.3055 7.7841 79.1468 7.45402 79.041 7.09009C78.9395 6.72192 78.8887 6.34953 78.8887 5.9729C78.8887 5.5328 78.95 5.1202 79.0728 4.73511C79.1955 4.35002 79.3774 4.01147 79.6187 3.71948C79.8599 3.42326 80.1582 3.19263 80.5137 3.02759C80.8734 2.86255 81.2881 2.78003 81.7578 2.78003C82.2868 2.78003 82.7375 2.88582 83.1099 3.09741C83.4823 3.309 83.7848 3.59253 84.0176 3.948C84.2546 4.30347 84.4281 4.70337 84.5381 5.14771C84.6481 5.59204 84.7031 6.04907 84.7031 6.5188V6.94409C84.7031 7.42228 84.6714 7.90894 84.6079 8.40405C84.5487 8.89494 84.4323 9.36466 84.2588 9.81323C84.0895 10.2618 83.842 10.6638 83.5161 11.0193C83.1903 11.3705 82.765 11.6498 82.2402 11.8572C81.7197 12.0603 81.0765 12.1619 80.3105 12.1619H80.1899V11.1653ZM88.0483 6.95044H88.8862C89.2967 6.95044 89.6353 6.88273 89.9019 6.74731C90.1727 6.60767 90.3737 6.41935 90.5049 6.18237C90.6403 5.94116 90.708 5.67033 90.708 5.36987C90.708 5.0144 90.6488 4.71606 90.5303 4.47485C90.4118 4.23364 90.234 4.05168 89.9971 3.92896C89.7601 3.80623 89.4596 3.74487 89.0957 3.74487C88.7656 3.74487 88.4736 3.81047 88.2197 3.94165C87.9701 4.0686 87.7733 4.25057 87.6294 4.48755C87.4897 4.72453 87.4199 5.00382 87.4199 5.32544H86.2456C86.2456 4.85571 86.3641 4.4283 86.6011 4.04321C86.8381 3.65812 87.1702 3.35132 87.5977 3.1228C88.0293 2.89429 88.5286 2.78003 89.0957 2.78003C89.6543 2.78003 90.1431 2.87948 90.562 3.07837C90.981 3.27303 91.3068 3.56502 91.5396 3.95435C91.7723 4.33944 91.8887 4.81974 91.8887 5.39526C91.8887 5.62801 91.8337 5.87769 91.7236 6.14429C91.6178 6.40666 91.4507 6.6521 91.2222 6.88062C90.9979 7.10913 90.7059 7.29744 90.3462 7.44556C89.9865 7.58944 89.5549 7.66138 89.0513 7.66138H88.0483V6.95044ZM88.0483 7.91528V7.21069H89.0513C89.6395 7.21069 90.1261 7.28052 90.5112 7.42017C90.8963 7.55981 91.1989 7.74601 91.4189 7.97876C91.6432 8.21151 91.7998 8.46753 91.8887 8.74683C91.9818 9.02189 92.0283 9.29696 92.0283 9.57202C92.0283 10.0037 91.9543 10.3866 91.8062 10.7209C91.6623 11.0553 91.457 11.3388 91.1904 11.5715C90.9281 11.8043 90.6191 11.9799 90.2637 12.0984C89.9082 12.2169 89.521 12.2761 89.1021 12.2761C88.7 12.2761 88.3213 12.219 87.9658 12.1047C87.6146 11.9905 87.3035 11.8254 87.0327 11.6096C86.7619 11.3896 86.5503 11.1208 86.3979 10.8035C86.2456 10.4819 86.1694 10.1158 86.1694 9.70532H87.3438C87.3438 10.0269 87.4136 10.3083 87.5532 10.5496C87.6971 10.7908 87.9002 10.9791 88.1626 11.1145C88.4292 11.2457 88.7424 11.3113 89.1021 11.3113C89.4618 11.3113 89.7707 11.2499 90.0288 11.1272C90.2912 11.0002 90.4922 10.8098 90.6318 10.5559C90.7757 10.302 90.8477 9.9825 90.8477 9.59741C90.8477 9.21232 90.7673 8.89705 90.6064 8.65161C90.4456 8.40194 90.2171 8.21785 89.9209 8.09937C89.6289 7.97664 89.284 7.91528 88.8862 7.91528H88.0483Z" fill="#072D4B"/>
<g clip-path="url(#clip0_71_2989)">
<path d="M98.8185 9.67416L95.99 6.84666L96.697 6.13916L99.5255 8.96766L102 6.49266V12.1492H96.3435L98.8185 9.67416Z" fill="#F90000"/>
</g>
<path d="M141.944 11.1526V12.1492H137.05V11.1526H141.944ZM137.298 2.90698V12.1492H136.073V2.90698H137.298ZM141.297 6.88062V7.8772H137.05V6.88062H141.297ZM141.881 2.90698V3.90991H137.05V2.90698H141.881ZM148.749 2.90698H149.968V9.15942C149.968 9.85343 149.813 10.4311 149.504 10.8923C149.195 11.3536 148.785 11.7006 148.273 11.9333C147.765 12.1619 147.213 12.2761 146.616 12.2761C145.99 12.2761 145.423 12.1619 144.915 11.9333C144.411 11.7006 144.012 11.3536 143.715 10.8923C143.423 10.4311 143.277 9.85343 143.277 9.15942V2.90698H144.49V9.15942C144.49 9.64185 144.579 10.0396 144.756 10.3528C144.934 10.6659 145.182 10.8987 145.499 11.051C145.821 11.2034 146.193 11.2795 146.616 11.2795C147.044 11.2795 147.416 11.2034 147.733 11.051C148.055 10.8987 148.305 10.6659 148.482 10.3528C148.66 10.0396 148.749 9.64185 148.749 9.15942V2.90698ZM151.891 2.90698H154.951C155.645 2.90698 156.231 3.01278 156.709 3.22437C157.191 3.43595 157.557 3.7491 157.807 4.16382C158.061 4.5743 158.188 5.08 158.188 5.68091C158.188 6.10409 158.101 6.49129 157.928 6.84253C157.758 7.18953 157.513 7.48576 157.191 7.7312C156.874 7.97241 156.493 8.15226 156.049 8.27075L155.706 8.40405H152.831L152.818 7.40747H154.989C155.429 7.40747 155.795 7.3313 156.087 7.17896C156.379 7.02238 156.599 6.81291 156.747 6.55054C156.895 6.28817 156.969 5.99829 156.969 5.68091C156.969 5.32544 156.899 5.0144 156.76 4.7478C156.62 4.4812 156.4 4.27596 156.1 4.13208C155.803 3.98397 155.42 3.90991 154.951 3.90991H153.116V12.1492H151.891V2.90698ZM157.293 12.1492L155.046 7.95972L156.322 7.95337L158.601 12.073V12.1492H157.293ZM168.312 5.96021V6.98218H163.019V5.96021H168.312ZM168.312 8.59448V9.61646H163.019V8.59448H168.312ZM177.041 2.8562V12.1492H175.866V4.32251L173.499 5.18579V4.12573L176.856 2.8562H177.041ZM186.549 11.1843V12.1492H180.5V11.3049L183.528 7.93433C183.9 7.51961 184.188 7.16838 184.391 6.88062C184.598 6.58862 184.742 6.32837 184.823 6.09985C184.907 5.86711 184.95 5.63013 184.95 5.38892C184.95 5.08423 184.886 4.80916 184.759 4.56372C184.637 4.31405 184.455 4.11515 184.213 3.96704C183.972 3.81893 183.68 3.74487 183.337 3.74487C182.927 3.74487 182.584 3.82528 182.309 3.98608C182.038 4.14266 181.835 4.36271 181.7 4.64624C181.564 4.92977 181.497 5.25562 181.497 5.62378H180.322C180.322 5.10327 180.437 4.6272 180.665 4.19556C180.894 3.76392 181.232 3.42114 181.681 3.16724C182.129 2.9091 182.681 2.78003 183.337 2.78003C183.921 2.78003 184.421 2.88371 184.835 3.09106C185.25 3.29419 185.568 3.58195 185.788 3.95435C186.012 4.32251 186.124 4.75415 186.124 5.24927C186.124 5.5201 186.077 5.79517 185.984 6.07446C185.896 6.34953 185.771 6.62459 185.61 6.89966C185.453 7.17472 185.269 7.44556 185.058 7.71216C184.85 7.97876 184.628 8.24113 184.391 8.49927L181.916 11.1843H186.549ZM192.313 2.89429H192.415V3.89087H192.313C191.691 3.89087 191.17 3.99243 190.751 4.19556C190.333 4.39445 190 4.66317 189.755 5.00171C189.509 5.33602 189.332 5.71265 189.222 6.13159C189.116 6.55054 189.063 6.97583 189.063 7.40747V8.76587C189.063 9.17635 189.112 9.54028 189.209 9.85767C189.306 10.1708 189.44 10.4353 189.609 10.6511C189.778 10.8669 189.969 11.0299 190.18 11.1399C190.396 11.2499 190.62 11.3049 190.853 11.3049C191.124 11.3049 191.365 11.2542 191.577 11.1526C191.788 11.0468 191.966 10.9008 192.11 10.7146C192.258 10.5242 192.37 10.2999 192.446 10.0417C192.522 9.78361 192.561 9.50008 192.561 9.19116C192.561 8.9161 192.527 8.65161 192.459 8.39771C192.391 8.13957 192.288 7.91105 192.148 7.71216C192.008 7.50903 191.833 7.35034 191.621 7.23608C191.414 7.11759 191.166 7.05835 190.878 7.05835C190.553 7.05835 190.248 7.13875 189.964 7.29956C189.685 7.45614 189.454 7.66349 189.272 7.92163C189.095 8.17554 188.993 8.45272 188.968 8.75317L188.346 8.74683C188.405 8.27287 188.515 7.86873 188.676 7.53442C188.841 7.19588 189.044 6.92082 189.285 6.70923C189.531 6.49341 189.804 6.33683 190.104 6.2395C190.409 6.13794 190.73 6.08716 191.069 6.08716C191.53 6.08716 191.928 6.17391 192.262 6.34741C192.597 6.52091 192.872 6.75366 193.087 7.04565C193.303 7.33341 193.462 7.65926 193.563 8.02319C193.669 8.38289 193.722 8.75317 193.722 9.13403C193.722 9.56991 193.661 9.97827 193.538 10.3591C193.415 10.74 193.231 11.0743 192.986 11.3621C192.745 11.6498 192.446 11.8741 192.091 12.0349C191.735 12.1957 191.323 12.2761 190.853 12.2761C190.354 12.2761 189.918 12.1746 189.545 11.9714C189.173 11.7641 188.864 11.489 188.619 11.1462C188.373 10.8035 188.189 10.4226 188.066 10.0037C187.944 9.58472 187.882 9.15942 187.882 8.72778V8.17554C187.882 7.52384 187.948 6.88485 188.079 6.25854C188.21 5.63224 188.437 5.06519 188.758 4.55737C189.084 4.04956 189.535 3.64543 190.11 3.34497C190.686 3.04451 191.42 2.89429 192.313 2.89429ZM196.604 7.75024L195.665 7.50903L196.128 2.90698H200.87V3.99243H197.125L196.845 6.5061C197.014 6.40877 197.228 6.31779 197.486 6.23315C197.749 6.14852 198.049 6.1062 198.388 6.1062C198.815 6.1062 199.198 6.18026 199.537 6.32837C199.875 6.47225 200.163 6.67961 200.4 6.95044C200.641 7.22127 200.825 7.54712 200.952 7.92798C201.079 8.30884 201.143 8.73413 201.143 9.20386C201.143 9.64819 201.081 10.0566 200.958 10.429C200.84 10.8014 200.66 11.1272 200.419 11.4065C200.178 11.6816 199.873 11.8953 199.505 12.0476C199.141 12.2 198.711 12.2761 198.216 12.2761C197.844 12.2761 197.491 12.2253 197.156 12.1238C196.826 12.018 196.53 11.8593 196.268 11.6477C196.009 11.4319 195.798 11.1653 195.633 10.8479C195.472 10.5263 195.37 10.1497 195.328 9.71802H196.445C196.496 10.065 196.598 10.357 196.75 10.594C196.902 10.831 197.101 11.0108 197.347 11.1335C197.596 11.252 197.886 11.3113 198.216 11.3113C198.496 11.3113 198.743 11.2626 198.959 11.1653C199.175 11.068 199.357 10.9283 199.505 10.7463C199.653 10.5644 199.765 10.3443 199.841 10.0862C199.922 9.82804 199.962 9.53817 199.962 9.21655C199.962 8.92456 199.922 8.65373 199.841 8.40405C199.761 8.15438 199.64 7.93644 199.479 7.75024C199.323 7.56405 199.13 7.42017 198.902 7.3186C198.673 7.21281 198.411 7.15991 198.115 7.15991C197.721 7.15991 197.423 7.21281 197.22 7.3186C197.021 7.4244 196.816 7.56828 196.604 7.75024ZM206.291 2.8562V12.1492H205.116V4.32251L202.749 5.18579V4.12573L206.106 2.8562H206.291ZM209.89 11.5271C209.89 11.3282 209.951 11.1611 210.074 11.0256C210.201 10.886 210.383 10.8162 210.62 10.8162C210.857 10.8162 211.036 10.886 211.159 11.0256C211.286 11.1611 211.35 11.3282 211.35 11.5271C211.35 11.7218 211.286 11.8868 211.159 12.0222C211.036 12.1576 210.857 12.2253 210.62 12.2253C210.383 12.2253 210.201 12.1576 210.074 12.0222C209.951 11.8868 209.89 11.7218 209.89 11.5271ZM218.973 6.79175V8.20093C218.973 8.95841 218.905 9.59741 218.77 10.1179C218.635 10.6384 218.44 11.0574 218.186 11.3748C217.932 11.6921 217.625 11.9228 217.266 12.0667C216.91 12.2063 216.508 12.2761 216.06 12.2761C215.704 12.2761 215.376 12.2317 215.076 12.1428C214.775 12.054 214.504 11.9122 214.263 11.7175C214.026 11.5186 213.823 11.2605 213.654 10.9431C213.485 10.6257 213.355 10.2406 213.267 9.78784C213.178 9.33504 213.133 8.80607 213.133 8.20093V6.79175C213.133 6.03426 213.201 5.3995 213.336 4.88745C213.476 4.37541 213.673 3.96493 213.927 3.65601C214.181 3.34285 214.485 3.11857 214.841 2.98315C215.201 2.84774 215.603 2.78003 216.047 2.78003C216.407 2.78003 216.737 2.82446 217.037 2.91333C217.342 2.99797 217.613 3.1355 217.85 3.32593C218.087 3.51213 218.288 3.7618 218.453 4.07495C218.622 4.38387 218.751 4.76261 218.84 5.21118C218.929 5.65975 218.973 6.1866 218.973 6.79175ZM217.792 8.39136V6.59497C217.792 6.18026 217.767 5.81632 217.716 5.50317C217.67 5.18579 217.6 4.91496 217.507 4.69067C217.414 4.46639 217.295 4.28442 217.151 4.14478C217.012 4.00513 216.849 3.90356 216.663 3.84009C216.481 3.77238 216.275 3.73853 216.047 3.73853C215.768 3.73853 215.52 3.79142 215.304 3.89722C215.088 3.99878 214.906 4.1617 214.758 4.38599C214.614 4.61027 214.504 4.90438 214.428 5.26831C214.352 5.63224 214.314 6.07446 214.314 6.59497V8.39136C214.314 8.80607 214.337 9.17212 214.384 9.4895C214.435 9.80688 214.509 10.0819 214.606 10.3147C214.703 10.5432 214.822 10.7315 214.961 10.8796C215.101 11.0278 215.262 11.1378 215.444 11.2097C215.63 11.2774 215.835 11.3113 216.06 11.3113C216.347 11.3113 216.599 11.2563 216.815 11.1462C217.031 11.0362 217.211 10.8648 217.354 10.6321C217.503 10.3951 217.613 10.0925 217.685 9.72437C217.757 9.35197 217.792 8.90763 217.792 8.39136ZM226.286 6.79175V8.20093C226.286 8.95841 226.218 9.59741 226.083 10.1179C225.947 10.6384 225.752 11.0574 225.499 11.3748C225.245 11.6921 224.938 11.9228 224.578 12.0667C224.223 12.2063 223.821 12.2761 223.372 12.2761C223.017 12.2761 222.689 12.2317 222.388 12.1428C222.088 12.054 221.817 11.9122 221.576 11.7175C221.339 11.5186 221.136 11.2605 220.966 10.9431C220.797 10.6257 220.668 10.2406 220.579 9.78784C220.49 9.33504 220.446 8.80607 220.446 8.20093V6.79175C220.446 6.03426 220.514 5.3995 220.649 4.88745C220.789 4.37541 220.985 3.96493 221.239 3.65601C221.493 3.34285 221.798 3.11857 222.153 2.98315C222.513 2.84774 222.915 2.78003 223.359 2.78003C223.719 2.78003 224.049 2.82446 224.35 2.91333C224.654 2.99797 224.925 3.1355 225.162 3.32593C225.399 3.51213 225.6 3.7618 225.765 4.07495C225.934 4.38387 226.063 4.76261 226.152 5.21118C226.241 5.65975 226.286 6.1866 226.286 6.79175ZM225.105 8.39136V6.59497C225.105 6.18026 225.08 5.81632 225.029 5.50317C224.982 5.18579 224.912 4.91496 224.819 4.69067C224.726 4.46639 224.608 4.28442 224.464 4.14478C224.324 4.00513 224.161 3.90356 223.975 3.84009C223.793 3.77238 223.588 3.73853 223.359 3.73853C223.08 3.73853 222.833 3.79142 222.617 3.89722C222.401 3.99878 222.219 4.1617 222.071 4.38599C221.927 4.61027 221.817 4.90438 221.741 5.26831C221.665 5.63224 221.626 6.07446 221.626 6.59497V8.39136C221.626 8.80607 221.65 9.17212 221.696 9.4895C221.747 9.80688 221.821 10.0819 221.918 10.3147C222.016 10.5432 222.134 10.7315 222.274 10.8796C222.414 11.0278 222.574 11.1378 222.756 11.2097C222.943 11.2774 223.148 11.3113 223.372 11.3113C223.66 11.3113 223.912 11.2563 224.127 11.1462C224.343 11.0362 224.523 10.8648 224.667 10.6321C224.815 10.3951 224.925 10.0925 224.997 9.72437C225.069 9.35197 225.105 8.90763 225.105 8.39136Z" fill="#072D4B"/>
<g clip-path="url(#clip1_71_2989)">
<path d="M234.525 9.3292L231.697 12.1582L230.99 11.4507L233.818 8.6227L231.343 6.14771H237V11.8042L234.525 9.3292Z" fill="#2FCC71"/>
</g>
<path d="M271.073 2.90698H274.132C274.826 2.90698 275.412 3.01278 275.891 3.22437C276.373 3.43595 276.739 3.7491 276.989 4.16382C277.243 4.5743 277.37 5.08 277.37 5.68091C277.37 6.10409 277.283 6.49129 277.109 6.84253C276.94 7.18953 276.695 7.48576 276.373 7.7312C276.056 7.97241 275.675 8.15226 275.23 8.27075L274.888 8.40405H272.012L272 7.40747H274.17C274.611 7.40747 274.977 7.3313 275.269 7.17896C275.561 7.02238 275.781 6.81291 275.929 6.55054C276.077 6.28817 276.151 5.99829 276.151 5.68091C276.151 5.32544 276.081 5.0144 275.941 4.7478C275.802 4.4812 275.582 4.27596 275.281 4.13208C274.985 3.98397 274.602 3.90991 274.132 3.90991H272.298V12.1492H271.073V2.90698ZM276.475 12.1492L274.228 7.95972L275.503 7.95337L277.782 12.073V12.1492H276.475ZM284.371 2.90698H285.59V9.15942C285.59 9.85343 285.435 10.4311 285.126 10.8923C284.818 11.3536 284.407 11.7006 283.895 11.9333C283.387 12.1619 282.835 12.2761 282.238 12.2761C281.612 12.2761 281.045 12.1619 280.537 11.9333C280.034 11.7006 279.634 11.3536 279.337 10.8923C279.045 10.4311 278.899 9.85343 278.899 9.15942V2.90698H280.112V9.15942C280.112 9.64185 280.201 10.0396 280.378 10.3528C280.556 10.6659 280.804 10.8987 281.121 11.051C281.443 11.2034 281.815 11.2795 282.238 11.2795C282.666 11.2795 283.038 11.2034 283.355 11.051C283.677 10.8987 283.927 10.6659 284.104 10.3528C284.282 10.0396 284.371 9.64185 284.371 9.15942V2.90698ZM290.808 7.82642H288.465L288.453 6.84253H290.579C290.93 6.84253 291.237 6.78328 291.5 6.66479C291.762 6.54631 291.965 6.37703 292.109 6.15698C292.257 5.9327 292.331 5.6661 292.331 5.35718C292.331 5.01864 292.265 4.74357 292.134 4.53198C292.007 4.31616 291.811 4.15959 291.544 4.06226C291.282 3.96069 290.947 3.90991 290.541 3.90991H288.738V12.1492H287.513V2.90698H290.541C291.015 2.90698 291.438 2.95565 291.811 3.05298C292.183 3.14608 292.498 3.29419 292.756 3.49731C293.019 3.69621 293.218 3.95011 293.353 4.25903C293.488 4.56795 293.556 4.93823 293.556 5.36987C293.556 5.75073 293.459 6.09562 293.264 6.40454C293.069 6.70923 292.799 6.9589 292.452 7.15356C292.109 7.34823 291.707 7.47306 291.246 7.52808L290.808 7.82642ZM290.75 12.1492H287.983L288.675 11.1526H290.75C291.14 11.1526 291.47 11.0849 291.741 10.9495C292.016 10.814 292.225 10.6236 292.369 10.3782C292.513 10.1285 292.585 9.83439 292.585 9.49585C292.585 9.15308 292.524 8.85685 292.401 8.60718C292.278 8.3575 292.086 8.16496 291.823 8.02954C291.561 7.89412 291.222 7.82642 290.808 7.82642H289.062L289.075 6.84253H291.461L291.722 7.198C292.166 7.23608 292.543 7.36304 292.852 7.57886C293.16 7.79045 293.395 8.06128 293.556 8.39136C293.721 8.72144 293.804 9.08537 293.804 9.48315C293.804 10.0587 293.677 10.5453 293.423 10.9431C293.173 11.3367 292.82 11.6371 292.363 11.8445C291.906 12.0476 291.368 12.1492 290.75 12.1492ZM304.023 5.96021V6.98218H298.729V5.96021H304.023ZM304.023 8.59448V9.61646H298.729V8.59448H304.023ZM312.751 2.8562V12.1492H311.577V4.32251L309.209 5.18579V4.12573L312.567 2.8562H312.751ZM317.373 11.1653H317.493C318.17 11.1653 318.72 11.0701 319.144 10.8796C319.567 10.6892 319.893 10.4332 320.121 10.1116C320.35 9.78996 320.506 9.42814 320.591 9.02612C320.675 8.61987 320.718 8.20304 320.718 7.77563V6.36011C320.718 5.94116 320.669 5.56877 320.572 5.24292C320.479 4.91707 320.347 4.64412 320.178 4.42407C320.013 4.20402 319.825 4.03687 319.613 3.92261C319.402 3.80835 319.177 3.75122 318.94 3.75122C318.67 3.75122 318.426 3.80623 318.21 3.91626C317.999 4.02205 317.819 4.17228 317.671 4.36694C317.527 4.5616 317.417 4.79012 317.341 5.05249C317.265 5.31486 317.227 5.6005 317.227 5.90942C317.227 6.18449 317.26 6.45109 317.328 6.70923C317.396 6.96737 317.5 7.20011 317.639 7.40747C317.779 7.61483 317.952 7.77987 318.16 7.90259C318.371 8.02108 318.619 8.08032 318.902 8.08032C319.165 8.08032 319.41 8.02954 319.639 7.92798C319.871 7.82218 320.077 7.68042 320.254 7.50269C320.436 7.32072 320.58 7.11548 320.686 6.88696C320.796 6.65845 320.86 6.41935 320.876 6.16968H321.435C321.435 6.52091 321.365 6.86792 321.226 7.21069C321.09 7.54924 320.9 7.85815 320.654 8.13745C320.409 8.41675 320.121 8.64103 319.791 8.8103C319.461 8.97534 319.101 9.05786 318.712 9.05786C318.255 9.05786 317.859 8.96899 317.525 8.79126C317.191 8.61353 316.916 8.37655 316.7 8.08032C316.488 7.7841 316.329 7.45402 316.224 7.09009C316.122 6.72192 316.071 6.34953 316.071 5.9729C316.071 5.5328 316.133 5.1202 316.255 4.73511C316.378 4.35002 316.56 4.01147 316.801 3.71948C317.042 3.42326 317.341 3.19263 317.696 3.02759C318.056 2.86255 318.471 2.78003 318.94 2.78003C319.469 2.78003 319.92 2.88582 320.292 3.09741C320.665 3.309 320.967 3.59253 321.2 3.948C321.437 4.30347 321.611 4.70337 321.721 5.14771C321.831 5.59204 321.886 6.04907 321.886 6.5188V6.94409C321.886 7.42228 321.854 7.90894 321.791 8.40405C321.731 8.89494 321.615 9.36466 321.441 9.81323C321.272 10.2618 321.025 10.6638 320.699 11.0193C320.373 11.3705 319.948 11.6498 319.423 11.8572C318.902 12.0603 318.259 12.1619 317.493 12.1619H317.373V11.1653ZM329.319 6.79175V8.20093C329.319 8.95841 329.251 9.59741 329.116 10.1179C328.98 10.6384 328.786 11.0574 328.532 11.3748C328.278 11.6921 327.971 11.9228 327.611 12.0667C327.256 12.2063 326.854 12.2761 326.405 12.2761C326.05 12.2761 325.722 12.2317 325.421 12.1428C325.121 12.054 324.85 11.9122 324.609 11.7175C324.372 11.5186 324.169 11.2605 324 10.9431C323.83 10.6257 323.701 10.2406 323.612 9.78784C323.523 9.33504 323.479 8.80607 323.479 8.20093V6.79175C323.479 6.03426 323.547 5.3995 323.682 4.88745C323.822 4.37541 324.019 3.96493 324.272 3.65601C324.526 3.34285 324.831 3.11857 325.187 2.98315C325.546 2.84774 325.948 2.78003 326.393 2.78003C326.752 2.78003 327.082 2.82446 327.383 2.91333C327.688 2.99797 327.958 3.1355 328.195 3.32593C328.432 3.51213 328.633 3.7618 328.798 4.07495C328.968 4.38387 329.097 4.76261 329.186 5.21118C329.274 5.65975 329.319 6.1866 329.319 6.79175ZM328.138 8.39136V6.59497C328.138 6.18026 328.113 5.81632 328.062 5.50317C328.015 5.18579 327.946 4.91496 327.853 4.69067C327.759 4.46639 327.641 4.28442 327.497 4.14478C327.357 4.00513 327.194 3.90356 327.008 3.84009C326.826 3.77238 326.621 3.73853 326.393 3.73853C326.113 3.73853 325.866 3.79142 325.65 3.89722C325.434 3.99878 325.252 4.1617 325.104 4.38599C324.96 4.61027 324.85 4.90438 324.774 5.26831C324.698 5.63224 324.66 6.07446 324.66 6.59497V8.39136C324.66 8.80607 324.683 9.17212 324.729 9.4895C324.78 9.80688 324.854 10.0819 324.952 10.3147C325.049 10.5432 325.167 10.7315 325.307 10.8796C325.447 11.0278 325.608 11.1378 325.79 11.2097C325.976 11.2774 326.181 11.3113 326.405 11.3113C326.693 11.3113 326.945 11.2563 327.161 11.1462C327.376 11.0362 327.556 10.8648 327.7 10.6321C327.848 10.3951 327.958 10.0925 328.03 9.72437C328.102 9.35197 328.138 8.90763 328.138 8.39136ZM330.976 11.5271C330.976 11.3282 331.037 11.1611 331.16 11.0256C331.287 10.886 331.469 10.8162 331.706 10.8162C331.943 10.8162 332.122 10.886 332.245 11.0256C332.372 11.1611 332.436 11.3282 332.436 11.5271C332.436 11.7218 332.372 11.8868 332.245 12.0222C332.122 12.1576 331.943 12.2253 331.706 12.2253C331.469 12.2253 331.287 12.1576 331.16 12.0222C331.037 11.8868 330.976 11.7218 330.976 11.5271ZM340.23 2.90698V3.56714L336.403 12.1492H335.165L338.986 3.87183H333.984V2.90698H340.23ZM343.055 7.75024L342.116 7.50903L342.579 2.90698H347.321V3.99243H343.576L343.296 6.5061C343.466 6.40877 343.679 6.31779 343.938 6.23315C344.2 6.14852 344.5 6.1062 344.839 6.1062C345.266 6.1062 345.649 6.18026 345.988 6.32837C346.326 6.47225 346.614 6.67961 346.851 6.95044C347.092 7.22127 347.276 7.54712 347.403 7.92798C347.53 8.30884 347.594 8.73413 347.594 9.20386C347.594 9.64819 347.532 10.0566 347.41 10.429C347.291 10.8014 347.111 11.1272 346.87 11.4065C346.629 11.6816 346.324 11.8953 345.956 12.0476C345.592 12.2 345.163 12.2761 344.667 12.2761C344.295 12.2761 343.942 12.2253 343.607 12.1238C343.277 12.018 342.981 11.8593 342.719 11.6477C342.461 11.4319 342.249 11.1653 342.084 10.8479C341.923 10.5263 341.822 10.1497 341.779 9.71802H342.896C342.947 10.065 343.049 10.357 343.201 10.594C343.354 10.831 343.552 11.0108 343.798 11.1335C344.048 11.252 344.337 11.3113 344.667 11.3113C344.947 11.3113 345.194 11.2626 345.41 11.1653C345.626 11.068 345.808 10.9283 345.956 10.7463C346.104 10.5644 346.216 10.3443 346.292 10.0862C346.373 9.82804 346.413 9.53817 346.413 9.21655C346.413 8.92456 346.373 8.65373 346.292 8.40405C346.212 8.15438 346.091 7.93644 345.931 7.75024C345.774 7.56405 345.582 7.42017 345.353 7.3186C345.125 7.21281 344.862 7.15991 344.566 7.15991C344.172 7.15991 343.874 7.21281 343.671 7.3186C343.472 7.4244 343.267 7.56828 343.055 7.75024Z" fill="#072D4B"/>
<g clip-path="url(#clip2_71_2989)">
<path d="M355.525 9.3292L352.697 12.1582L351.99 11.4507L354.818 8.6227L352.343 6.14771H358V11.8042L355.525 9.3292Z" fill="#2FCC71"/>
</g>
<line opacity="0.6" x1="111.9" y1="15.1492" x2="111.9" y2="0.14917" stroke="#072D4B" stroke-width="0.2"/>
<line opacity="0.6" x1="248.9" y1="15.1492" x2="248.9" y2="0.14917" stroke="#072D4B" stroke-width="0.2"/>
<defs>
<clipPath id="clip0_71_2989">
<rect width="12" height="12" fill="white" transform="translate(93 3.14917)"/>
</clipPath>
<clipPath id="clip1_71_2989">
<rect width="12" height="12" fill="white" transform="translate(228 3.14917)"/>
</clipPath>
<clipPath id="clip2_71_2989">
<rect width="12" height="12" fill="white" transform="translate(349 3.14917)"/>
</clipPath>
</defs>
</svg>
