<svg width="30" height="31" viewBox="0 0 30 31" fill="none" xmlns="http://www.w3.org/2000/svg">
<g clip-path="url(#clip0_71_3243)">
<path d="M14.225 2.67285C13.3039 3.53113 12.5651 4.56613 12.0527 5.71612C11.5403 6.86612 11.2648 8.10753 11.2426 9.36632C11.2204 10.6251 11.452 11.8755 11.9235 13.0428C12.395 14.2102 13.0968 15.2706 13.987 16.1608C14.8773 17.0511 15.9377 17.7529 17.105 18.2244C18.2724 18.6959 19.5227 18.9275 20.7815 18.9052C22.0403 18.883 23.2817 18.6075 24.4317 18.0951C25.5817 17.5827 26.6167 16.8439 27.475 15.9229C27.0775 22.4666 21.645 27.6491 15.0013 27.6491C8.09625 27.6491 2.5 22.0529 2.5 15.1491C2.5 8.50535 7.6825 3.07285 14.225 2.67285Z" fill="black"/>
</g>
<defs>
<clipPath id="clip0_71_3243">
<rect width="30" height="30" fill="white" transform="translate(0 0.14917)"/>
</clipPath>
</defs>
</svg>
