<svg width="116" height="27" viewBox="0 0 116 27" fill="none" xmlns="http://www.w3.org/2000/svg">
<line x1="2" y1="5.8728" x2="2" y2="21.8728" stroke="url(#paint0_linear_79_371)" stroke-width="4" stroke-linecap="round"/>
<line x1="12" y1="7.8728" x2="12" y2="19.8728" stroke="url(#paint1_linear_79_371)" stroke-width="4" stroke-linecap="round"/>
<line x1="22" y1="9.8728" x2="22" y2="17.8728" stroke="url(#paint2_linear_79_371)" stroke-width="4" stroke-linecap="round"/>
<path d="M40.8389 18.0271C40.8389 17.5974 40.7673 17.2143 40.624 16.8777C40.4808 16.5411 40.2445 16.2403 39.915 15.9753C39.5928 15.7032 39.1559 15.4526 38.6045 15.2234C38.0602 14.9871 37.3799 14.7543 36.5635 14.5251C35.7829 14.3031 35.0775 14.0597 34.4473 13.7947C33.8171 13.5297 33.2764 13.2253 32.8252 12.8816C32.3812 12.5378 32.041 12.1368 31.8047 11.6785C31.5684 11.213 31.4502 10.6723 31.4502 10.0564C31.4502 9.45483 31.5791 8.90698 31.8369 8.41284C32.0947 7.9187 32.4564 7.49259 32.9219 7.13452C33.3945 6.77645 33.9495 6.50073 34.5869 6.30737C35.2314 6.11401 35.9368 6.01733 36.7031 6.01733C37.7988 6.01733 38.7441 6.22502 39.5391 6.64038C40.3411 7.05575 40.9606 7.61792 41.3975 8.3269C41.8415 9.02873 42.0635 9.81649 42.0635 10.6902H40.7422C40.7422 10.0098 40.5811 9.4047 40.2588 8.87476C39.9437 8.33765 39.4854 7.9187 38.8838 7.61792C38.2894 7.30998 37.5625 7.15601 36.7031 7.15601C35.8438 7.15601 35.1204 7.28849 34.5332 7.55347C33.9531 7.81128 33.5127 8.15861 33.2119 8.59546C32.9183 9.02515 32.7715 9.50496 32.7715 10.0349C32.7715 10.4073 32.8431 10.7511 32.9863 11.0662C33.1296 11.3741 33.3623 11.6641 33.6846 11.9363C34.014 12.2013 34.4473 12.4519 34.9844 12.6882C35.5215 12.9174 36.1839 13.1358 36.9717 13.3435C37.8024 13.5727 38.54 13.8269 39.1846 14.1062C39.8291 14.3855 40.3734 14.7078 40.8174 15.073C41.2614 15.4311 41.598 15.85 41.8271 16.3298C42.0563 16.8097 42.1709 17.3682 42.1709 18.0056C42.1709 18.643 42.0348 19.2159 41.7627 19.7244C41.4977 20.2257 41.1217 20.6518 40.6348 21.0027C40.1549 21.3536 39.5856 21.6222 38.9268 21.8083C38.2751 21.9945 37.5625 22.0876 36.7891 22.0876C36.0944 22.0876 35.4033 21.9981 34.7158 21.8191C34.0283 21.6401 33.3981 21.3643 32.8252 20.9919C32.2594 20.6124 31.8047 20.1254 31.4609 19.531C31.1243 18.9366 30.9561 18.2276 30.9561 17.4041H32.2666C32.2666 18.0629 32.3991 18.6179 32.6641 19.0691C32.929 19.5203 33.2799 19.8855 33.7168 20.1648C34.1608 20.4441 34.6478 20.6482 35.1777 20.7771C35.7148 20.8988 36.252 20.9597 36.7891 20.9597C37.6126 20.9597 38.3252 20.838 38.9268 20.5945C39.5355 20.351 40.0046 20.0108 40.334 19.574C40.6706 19.13 40.8389 18.6143 40.8389 18.0271ZM46.1562 10.2498V21.8728H44.8779V10.2498H46.1562ZM44.6523 6.88745C44.6523 6.64396 44.7275 6.43986 44.8779 6.27515C45.0355 6.10327 45.2503 6.01733 45.5225 6.01733C45.7946 6.01733 46.0094 6.10327 46.167 6.27515C46.3317 6.43986 46.4141 6.64396 46.4141 6.88745C46.4141 7.12378 46.3317 7.32788 46.167 7.49976C46.0094 7.66447 45.7946 7.74683 45.5225 7.74683C45.2503 7.74683 45.0355 7.66447 44.8779 7.49976C44.7275 7.32788 44.6523 7.12378 44.6523 6.88745ZM54.0625 10.2498V11.3025H48.2402V10.2498H54.0625ZM50.3779 7.26343H51.6562V19.0476C51.6562 19.5847 51.7279 19.9893 51.8711 20.2615C52.0143 20.5336 52.2005 20.7162 52.4297 20.8093C52.6589 20.9024 52.9059 20.949 53.1709 20.949C53.3643 20.949 53.5505 20.9382 53.7295 20.9167C53.9085 20.8881 54.0697 20.8595 54.2129 20.8308L54.2666 21.9158C54.109 21.9659 53.9049 22.0053 53.6543 22.0339C53.4036 22.0697 53.153 22.0876 52.9023 22.0876C52.4082 22.0876 51.9714 21.9981 51.5918 21.8191C51.2122 21.6329 50.915 21.3178 50.7002 20.8738C50.4854 20.4226 50.3779 19.8103 50.3779 19.0369V7.26343ZM61.249 22.0876C60.4899 22.0876 59.7917 21.948 59.1543 21.6687C58.5241 21.3894 57.9727 20.9955 57.5 20.4871C57.0345 19.9786 56.6729 19.377 56.415 18.6824C56.1644 17.9806 56.0391 17.2143 56.0391 16.3835V15.9216C56.0391 15.0264 56.1715 14.2172 56.4365 13.4939C56.7015 12.7706 57.0667 12.1511 57.5322 11.6355C57.9977 11.1199 58.5277 10.726 59.1221 10.4539C59.7236 10.1746 60.3538 10.0349 61.0127 10.0349C61.7503 10.0349 62.4056 10.1674 62.9785 10.4324C63.5514 10.6902 64.0312 11.059 64.418 11.5388C64.8118 12.0115 65.109 12.5736 65.3096 13.2253C65.5101 13.8699 65.6104 14.5824 65.6104 15.363V16.1472H56.8125V15.0515H64.332V14.9011C64.3177 14.2494 64.1852 13.6407 63.9346 13.075C63.6911 12.502 63.3258 12.0365 62.8389 11.6785C62.3519 11.3204 61.7432 11.1414 61.0127 11.1414C60.4684 11.1414 59.9671 11.2559 59.5088 11.4851C59.0576 11.7143 58.6673 12.0437 58.3379 12.4734C58.0156 12.8959 57.765 13.4008 57.5859 13.988C57.4141 14.5681 57.3281 15.2126 57.3281 15.9216V16.3835C57.3281 17.0281 57.4212 17.6296 57.6074 18.1882C57.8008 18.7397 58.0729 19.2266 58.4238 19.6492C58.7819 20.0717 59.2044 20.4011 59.6914 20.6375C60.1784 20.8738 60.7155 20.9919 61.3027 20.9919C61.9902 20.9919 62.599 20.8666 63.1289 20.616C63.6589 20.3582 64.1351 19.9535 64.5576 19.4021L65.3633 20.0251C65.1126 20.3975 64.7975 20.7413 64.418 21.0564C64.0456 21.3715 63.598 21.6222 63.0752 21.8083C62.5524 21.9945 61.9437 22.0876 61.249 22.0876ZM77.8457 19.7351V21.8728H69.9932V19.7351H77.8457ZM70.7451 6.23218V21.8728H68.0488V6.23218H70.7451ZM79.1777 16.1902V15.9431C79.1777 15.1052 79.2995 14.3282 79.543 13.6121C79.7865 12.8888 80.1374 12.2621 80.5957 11.7322C81.0612 11.1951 81.627 10.7797 82.293 10.4861C82.9661 10.1853 83.7253 10.0349 84.5703 10.0349C85.4225 10.0349 86.1816 10.1853 86.8477 10.4861C87.5208 10.7797 88.0902 11.1951 88.5557 11.7322C89.0212 12.2621 89.3757 12.8888 89.6191 13.6121C89.8626 14.3282 89.9844 15.1052 89.9844 15.9431V16.1902C89.9844 17.0281 89.8626 17.8051 89.6191 18.5212C89.3757 19.2374 89.0212 19.864 88.5557 20.4011C88.0902 20.9311 87.5244 21.3464 86.8584 21.6472C86.1924 21.9408 85.4368 22.0876 84.5918 22.0876C83.7396 22.0876 82.9769 21.9408 82.3037 21.6472C81.6377 21.3464 81.0719 20.9311 80.6064 20.4011C80.141 19.864 79.7865 19.2374 79.543 18.5212C79.2995 17.8051 79.1777 17.0281 79.1777 16.1902ZM81.7666 15.9431V16.1902C81.7666 16.713 81.8203 17.2071 81.9277 17.6726C82.0352 18.1381 82.2035 18.5463 82.4326 18.8972C82.6618 19.2481 82.9554 19.5238 83.3135 19.7244C83.6715 19.9249 84.0977 20.0251 84.5918 20.0251C85.0716 20.0251 85.487 19.9249 85.8379 19.7244C86.196 19.5238 86.4896 19.2481 86.7188 18.8972C86.9479 18.5463 87.1162 18.1381 87.2236 17.6726C87.3382 17.2071 87.3955 16.713 87.3955 16.1902V15.9431C87.3955 15.4275 87.3382 14.9405 87.2236 14.4822C87.1162 14.0167 86.9443 13.6049 86.708 13.2468C86.4788 12.8888 86.1852 12.6095 85.8271 12.4089C85.4762 12.2013 85.0573 12.0974 84.5703 12.0974C84.0833 12.0974 83.6608 12.2013 83.3027 12.4089C82.9518 12.6095 82.6618 12.8888 82.4326 13.2468C82.2035 13.6049 82.0352 14.0167 81.9277 14.4822C81.8203 14.9405 81.7666 15.4275 81.7666 15.9431ZM99.5986 10.2498H101.951V21.5505C101.951 22.5961 101.729 23.4841 101.285 24.2146C100.841 24.9451 100.222 25.5001 99.4268 25.8796C98.6318 26.2664 97.7116 26.4597 96.666 26.4597C96.222 26.4597 95.7279 26.3953 95.1836 26.2664C94.6465 26.1375 94.1237 25.9298 93.6152 25.6433C93.1139 25.364 92.695 24.9952 92.3584 24.5369L93.5723 23.0115C93.9876 23.5056 94.446 23.8673 94.9473 24.0964C95.4486 24.3256 95.9749 24.4402 96.5264 24.4402C97.1208 24.4402 97.6257 24.3292 98.041 24.1072C98.4635 23.8923 98.7894 23.5736 99.0186 23.1511C99.2477 22.7286 99.3623 22.213 99.3623 21.6042V12.8816L99.5986 10.2498ZM91.7031 16.1902V15.9646C91.7031 15.0837 91.8105 14.2817 92.0254 13.5583C92.2402 12.8279 92.5482 12.2013 92.9492 11.6785C93.3503 11.1485 93.8372 10.7439 94.4102 10.4646C94.9831 10.1781 95.6312 10.0349 96.3545 10.0349C97.1064 10.0349 97.7474 10.171 98.2773 10.4431C98.8145 10.7153 99.262 11.1056 99.6201 11.614C99.9782 12.1153 100.257 12.7169 100.458 13.4187C100.666 14.1134 100.82 14.8868 100.92 15.739V16.4587C100.827 17.2895 100.669 18.0486 100.447 18.7361C100.225 19.4236 99.9316 20.018 99.5664 20.5193C99.2012 21.0206 98.75 21.4073 98.2129 21.6794C97.6829 21.9516 97.0563 22.0876 96.333 22.0876C95.624 22.0876 94.9831 21.9408 94.4102 21.6472C93.8444 21.3536 93.3574 20.9418 92.9492 20.4119C92.5482 19.8819 92.2402 19.2589 92.0254 18.5427C91.8105 17.8194 91.7031 17.0352 91.7031 16.1902ZM94.292 15.9646V16.1902C94.292 16.7201 94.3421 17.2143 94.4424 17.6726C94.5498 18.1309 94.7109 18.5356 94.9258 18.8865C95.1478 19.2302 95.4271 19.5024 95.7637 19.7029C96.1074 19.8962 96.512 19.9929 96.9775 19.9929C97.5863 19.9929 98.084 19.864 98.4707 19.6062C98.8646 19.3484 99.1654 19.0011 99.373 18.5642C99.5879 18.1202 99.7383 17.6261 99.8242 17.0818V15.1375C99.7812 14.7149 99.6917 14.321 99.5557 13.9558C99.4268 13.5906 99.2513 13.2719 99.0293 12.9998C98.8073 12.7205 98.528 12.5056 98.1914 12.3552C97.8548 12.1977 97.4574 12.1189 96.999 12.1189C96.5335 12.1189 96.1289 12.2192 95.7852 12.4197C95.4414 12.6202 95.1585 12.8959 94.9365 13.2468C94.7217 13.5977 94.5605 14.0059 94.4531 14.4714C94.3457 14.9369 94.292 15.4347 94.292 15.9646ZM104.143 16.1902V15.9431C104.143 15.1052 104.264 14.3282 104.508 13.6121C104.751 12.8888 105.102 12.2621 105.561 11.7322C106.026 11.1951 106.592 10.7797 107.258 10.4861C107.931 10.1853 108.69 10.0349 109.535 10.0349C110.387 10.0349 111.146 10.1853 111.812 10.4861C112.486 10.7797 113.055 11.1951 113.521 11.7322C113.986 12.2621 114.34 12.8888 114.584 13.6121C114.827 14.3282 114.949 15.1052 114.949 15.9431V16.1902C114.949 17.0281 114.827 17.8051 114.584 18.5212C114.34 19.2374 113.986 19.864 113.521 20.4011C113.055 20.9311 112.489 21.3464 111.823 21.6472C111.157 21.9408 110.402 22.0876 109.557 22.0876C108.704 22.0876 107.942 21.9408 107.269 21.6472C106.603 21.3464 106.037 20.9311 105.571 20.4011C105.106 19.864 104.751 19.2374 104.508 18.5212C104.264 17.8051 104.143 17.0281 104.143 16.1902ZM106.731 15.9431V16.1902C106.731 16.713 106.785 17.2071 106.893 17.6726C107 18.1381 107.168 18.5463 107.397 18.8972C107.627 19.2481 107.92 19.5238 108.278 19.7244C108.636 19.9249 109.062 20.0251 109.557 20.0251C110.036 20.0251 110.452 19.9249 110.803 19.7244C111.161 19.5238 111.454 19.2481 111.684 18.8972C111.913 18.5463 112.081 18.1381 112.188 17.6726C112.303 17.2071 112.36 16.713 112.36 16.1902V15.9431C112.36 15.4275 112.303 14.9405 112.188 14.4822C112.081 14.0167 111.909 13.6049 111.673 13.2468C111.444 12.8888 111.15 12.6095 110.792 12.4089C110.441 12.2013 110.022 12.0974 109.535 12.0974C109.048 12.0974 108.626 12.2013 108.268 12.4089C107.917 12.6095 107.627 12.8888 107.397 13.2468C107.168 13.6049 107 14.0167 106.893 14.4822C106.785 14.9405 106.731 15.4275 106.731 15.9431Z" fill="black"/>
<defs>
<linearGradient id="paint0_linear_79_371" x1="-0.5" y1="3.8728" x2="-0.5" y2="23.8728" gradientUnits="userSpaceOnUse">
<stop stop-color="#EC008C"/>
<stop offset="1" stop-color="#FC6767"/>
</linearGradient>
<linearGradient id="paint1_linear_79_371" x1="9.5" y1="5.8728" x2="9.5" y2="21.8728" gradientUnits="userSpaceOnUse">
<stop stop-color="#E65C00"/>
<stop offset="1" stop-color="#F9D423"/>
</linearGradient>
<linearGradient id="paint2_linear_79_371" x1="19.5" y1="7.8728" x2="19.5" y2="19.8728" gradientUnits="userSpaceOnUse">
<stop stop-color="#00D2FF"/>
<stop offset="1" stop-color="#3A7BD5"/>
</linearGradient>
</defs>
</svg>
