<svg width="87" height="31" viewBox="0 0 87 31" fill="none" xmlns="http://www.w3.org/2000/svg">
<g clip-path="url(#clip0_79_369)">
<path d="M80.8007 2.9503C82.3333 2.9503 83.3733 3.23908 83.98 3.83326C84.5866 4.42711 84.8816 5.44753 84.8816 6.95268V24.9037C84.8816 26.4045 84.5878 27.4192 83.9836 28.0058C83.3791 28.5929 82.3379 28.8783 80.8011 28.8783H6.03904C4.51176 28.8783 3.48235 28.5954 2.89212 28.0134C2.3019 27.4315 2.01501 26.4159 2.01501 24.9084V6.95268C2.01501 5.22698 2.20534 4.27645 2.65141 3.77426C3.1508 3.21216 4.22882 2.9503 6.04416 2.9503H80.8007ZM80.8007 1.78687H6.04416C1.58229 1.78687 0.8396 3.31603 0.8396 6.95268V24.9083C0.8396 28.5422 2.3678 30.0417 6.03904 30.0417H80.801C84.4749 30.0417 86.057 28.5401 86.057 24.9037V6.95268C86.057 3.31603 84.4747 1.78687 80.8007 1.78687Z" fill="black"/>
<path d="M23.1349 23.8672L20.4875 24.8221L7.14771 22.1738V12.5775L20.4839 9.92944L23.1349 10.9059V23.8672ZM13.3525 17.3337V20.2L17.0814 20.7427V17.3337H13.3525ZM17.082 13.7474L13.353 14.2902V16.9593H17.082V13.7474ZM12.9758 20.1777V17.3341H10.0188V19.7658L12.9758 20.1777ZM12.9786 14.3121L10.0184 14.7245V16.9593H12.9786V14.3121Z" fill="black"/>
<path d="M11.2656 11.1636C11.1042 11.1926 10.9481 11.2207 10.786 11.2498C10.786 11.2266 10.786 11.2088 10.786 11.191C10.786 10.414 10.7842 9.63699 10.7869 8.85998C10.7881 8.50455 10.8301 8.15377 10.9488 7.81563C11.1226 7.32059 11.4525 6.96325 11.9253 6.73131C12.2114 6.59103 12.5143 6.50028 12.8232 6.42732C13.0071 6.38386 13.1912 6.33981 13.3771 6.30616C13.5436 6.27607 13.7123 6.25746 13.8805 6.23843C14.0433 6.21998 14.2067 6.22322 14.3695 6.23893C14.7425 6.27474 15.0803 6.39167 15.3474 6.66508C15.533 6.85521 15.6487 7.08508 15.7262 7.33538C15.7813 7.51339 15.8154 7.69563 15.8379 7.88053C15.8657 8.11014 15.874 8.34067 15.8745 8.57153C15.8756 9.10929 15.8748 9.64713 15.8748 10.185V10.2507C15.7161 10.2795 15.5587 10.308 15.3955 10.3377C15.3955 10.3139 15.3955 10.2945 15.3955 10.2751C15.3953 9.65319 15.3967 9.03117 15.3941 8.40931C15.3931 8.15868 15.3745 7.90912 15.3068 7.66571C15.2411 7.42945 15.1341 7.21721 14.945 7.05208C14.7953 6.92128 14.6188 6.84441 14.4257 6.80386C14.2138 6.7594 13.9996 6.75649 13.7847 6.7805C13.3183 6.83253 12.8688 6.95178 12.4317 7.11823C12.2084 7.20325 12 7.31552 11.8168 7.46992C11.5674 7.68001 11.4133 7.9471 11.3355 8.25973C11.2876 8.45261 11.2662 8.64873 11.2659 8.84693C11.2651 9.59918 11.2656 10.3515 11.2656 11.1037V11.1636Z" fill="black"/>
<path d="M18.0439 9.81734C17.8852 9.84593 17.7303 9.87385 17.5691 9.90294C17.5681 9.88266 17.5667 9.86563 17.5667 9.84851C17.5665 9.65388 17.5691 9.45917 17.5657 9.26455C17.5628 9.10142 17.5566 8.93812 17.5447 8.77541C17.5362 8.65898 17.5115 8.54438 17.4657 8.43543C17.3879 8.2502 17.2441 8.14449 17.0505 8.09962C16.8931 8.06313 16.7333 8.06372 16.5735 8.07444C16.4972 8.07959 16.4214 8.09039 16.3452 8.09845C16.3374 8.09928 16.3293 8.09854 16.3249 8.09854C16.301 7.94047 16.2775 7.7864 16.2534 7.62685C16.3211 7.61679 16.3892 7.60258 16.4579 7.59743C16.6221 7.58513 16.7867 7.56959 16.9511 7.56934C17.1311 7.56901 17.3092 7.59369 17.4755 7.67081C17.6807 7.76604 17.8072 7.92926 17.8863 8.13369C17.9539 8.30854 17.9863 8.49103 18.0073 8.67618C18.0495 9.04582 18.0464 9.41687 18.046 9.78793C18.0459 9.79599 18.0449 9.80413 18.0439 9.81734Z" fill="black"/>
<path d="M14.8409 7.95703C14.881 8.04072 14.8937 8.31553 14.8824 8.44709C14.774 8.49977 14.6644 8.55055 14.5571 8.60573C14.4325 8.6698 14.3175 8.748 14.2196 8.84905C14.0799 8.99282 14.0061 9.16833 13.9661 9.36022C13.9252 9.5565 13.9187 9.7557 13.9187 9.95523C13.9187 10.1712 13.9196 10.3873 13.92 10.6033C13.92 10.6146 13.9187 10.626 13.9176 10.6427C13.7611 10.6708 13.6055 10.6987 13.4423 10.7281C13.4423 10.7018 13.4422 10.6842 13.4423 10.6666C13.4436 10.3614 13.4387 10.0562 13.4481 9.7513C13.4573 9.45288 13.4998 9.15861 13.6137 8.87822C13.73 8.59193 13.9253 8.3757 14.1954 8.22371C14.3956 8.11102 14.6107 8.03357 14.8274 7.95961C14.8318 7.95811 14.8366 7.95786 14.8409 7.95703Z" fill="black"/>
<path d="M28.0895 13.5387V9.026H29.4058C31.0866 9.026 31.9269 9.75921 31.9269 11.2257C31.9269 11.9223 31.6938 12.4819 31.2275 12.9046C30.7613 13.3274 30.1359 13.5387 29.3517 13.5387H28.0895ZM28.843 9.66165V12.9061H29.4471C29.979 12.9061 30.393 12.7615 30.6886 12.4719C30.9844 12.1824 31.1322 11.7733 31.1322 11.2446C31.1322 10.1894 30.5799 9.66165 29.4757 9.66165H28.843Z" fill="black"/>
<path d="M34.1012 13.6143C33.5989 13.6143 33.1977 13.4638 32.8978 13.1627C32.5979 12.8617 32.4479 12.4625 32.4479 11.9653C32.4479 11.424 32.6042 11.0013 32.9169 10.697C33.2295 10.3929 33.6508 10.2407 34.1807 10.2407C34.6894 10.2407 35.0857 10.3886 35.3698 10.6844C35.6538 10.9803 35.7958 11.3904 35.7958 11.9149C35.7958 12.429 35.6426 12.8407 35.3364 13.1501C35.0301 13.4596 34.6183 13.6143 34.1012 13.6143ZM34.1362 10.8229C33.8479 10.8229 33.6201 10.9226 33.4526 11.1219C33.2851 11.3212 33.2014 11.596 33.2014 11.9464C33.2014 12.2842 33.2862 12.5501 33.4558 12.7442C33.6254 12.9382 33.852 13.0353 34.1362 13.0353C34.4266 13.0353 34.6497 12.9398 34.8055 12.7489C34.9612 12.558 35.0391 12.2863 35.0391 11.9339C35.0391 11.5793 34.9612 11.3055 34.8055 11.1125C34.6497 10.9195 34.4266 10.8229 34.1362 10.8229Z" fill="black"/>
<path d="M40.9046 10.3163L39.9444 13.5388H39.1718L38.5805 11.3548C38.5571 11.2709 38.5423 11.1766 38.536 11.0716H38.5233C38.519 11.1429 38.4999 11.2352 38.466 11.3485L37.8238 13.5388H37.0671L36.1102 10.3163H36.8731L37.4645 12.6388C37.4836 12.708 37.4963 12.8004 37.5026 12.9157H37.5249C37.5312 12.8276 37.5482 12.7332 37.5758 12.6325L38.2339 10.3163H38.927L39.5121 12.6482C39.5311 12.7217 39.5449 12.814 39.5534 12.9252H39.5756C39.5799 12.8475 39.5958 12.7553 39.6233 12.6482L40.202 10.3163H40.9046Z" fill="black"/>
<path d="M44.3316 13.5388H43.5939V11.723C43.5939 11.1209 43.3788 10.8198 42.9485 10.8198C42.7239 10.8198 42.5384 10.9032 42.3921 11.07C42.2458 11.2368 42.1728 11.4471 42.1728 11.701V13.5388H41.4319V10.3163H42.1728V10.8513H42.1855C42.4292 10.4443 42.7811 10.2407 43.2411 10.2407C43.595 10.2407 43.8653 10.3546 44.0518 10.5822C44.2383 10.8099 44.3316 11.1387 44.3316 11.5688V13.5388Z" fill="black"/>
<path d="M45.9526 8.76794H45.2118V13.5388H45.9526V8.76794Z" fill="black"/>
<path d="M48.3367 13.6143C47.8344 13.6143 47.4332 13.4638 47.1333 13.1627C46.8334 12.8617 46.6835 12.4625 46.6835 11.9653C46.6835 11.424 46.8397 11.0013 47.1525 10.697C47.4651 10.3929 47.8863 10.2407 48.4163 10.2407C48.925 10.2407 49.3213 10.3886 49.6054 10.6844C49.8894 10.9803 50.0314 11.3904 50.0314 11.9149C50.0314 12.429 49.8782 12.8407 49.572 13.1501C49.2655 13.4596 48.8539 13.6143 48.3367 13.6143ZM48.3717 10.8229C48.0834 10.8229 47.8556 10.9226 47.6881 11.1219C47.5206 11.3212 47.4369 11.596 47.4369 11.9464C47.4369 12.2842 47.5217 12.5501 47.6913 12.7442C47.8609 12.9382 48.0876 13.0353 48.3717 13.0353C48.6621 13.0353 48.8852 12.9398 49.041 12.7489C49.1967 12.558 49.2747 12.2863 49.2747 11.9339C49.2747 11.5793 49.1967 11.3055 49.041 11.1125C48.8852 10.9195 48.6621 10.8229 48.3717 10.8229Z" fill="black"/>
<path d="M53.1848 13.5388H52.4694V13.0353H52.4567C52.232 13.4213 51.9023 13.6144 51.4679 13.6144C51.1478 13.6144 50.8972 13.5283 50.716 13.3563C50.5347 13.1843 50.4442 12.9566 50.4442 12.6734C50.4442 12.065 50.7981 11.7104 51.5061 11.6097L52.4726 11.4744C52.4726 11.0149 52.2521 10.7852 51.8113 10.7852C51.4234 10.7852 51.0737 10.9173 50.7621 11.1817V10.5429C51.1055 10.3414 51.5018 10.2407 51.9512 10.2407C52.7736 10.2407 53.1848 10.6415 53.1848 11.4429V13.5388ZM52.4725 11.9559L51.7889 12.0503C51.577 12.0775 51.4174 12.1285 51.3104 12.2029C51.2035 12.2774 51.1499 12.408 51.1499 12.5947C51.1499 12.7311 51.1992 12.8428 51.2978 12.9298C51.3963 13.0169 51.5282 13.0605 51.6936 13.0605C51.9183 13.0605 52.1043 12.9824 52.2516 12.826C52.3989 12.6697 52.4726 12.473 52.4726 12.2359V11.9559H52.4725Z" fill="black"/>
<path d="M57.025 13.5389H56.2874V12.9912H56.2747C56.0373 13.4066 55.6717 13.6143 55.1779 13.6143C54.7773 13.6143 54.4566 13.4701 54.2161 13.1816C53.9755 12.8932 53.8552 12.5003 53.8552 12.0031C53.8552 11.4703 53.9882 11.0433 54.2543 10.7223C54.5203 10.4012 54.8747 10.2408 55.3178 10.2408C55.7565 10.2408 56.0755 10.415 56.2747 10.7632H56.2874V8.76794H57.025V13.5389ZM56.2969 12.066V11.6444C56.2969 11.4157 56.2217 11.2216 56.0712 11.0622C55.9207 10.9027 55.7288 10.823 55.4958 10.823C55.2202 10.823 55.0035 10.9248 54.8456 11.1282C54.6877 11.3317 54.6087 11.614 54.6087 11.9748C54.6087 12.302 54.6845 12.5607 54.8361 12.7505C54.9877 12.9404 55.1916 13.0353 55.4482 13.0353C55.7004 13.0353 55.9048 12.9436 56.0618 12.7599C56.2185 12.5764 56.2969 12.3451 56.2969 12.066Z" fill="black"/>
<path d="M61.5802 9.3627C61.4805 9.30603 61.3672 9.27777 61.2399 9.27777C60.8817 9.27777 60.7027 9.47813 60.7027 9.87877V10.3162H61.4595V10.889H60.7059V13.5388H59.9682V10.889H59.4118V10.3162H59.9682V9.79384C59.9682 9.45395 60.0805 9.18603 60.3053 8.98982C60.53 8.79362 60.8108 8.69556 61.1478 8.69556C61.3302 8.69556 61.4742 8.7155 61.5802 8.75531V9.3627Z" fill="black"/>
<path d="M63.853 11.0117C63.764 10.9425 63.6357 10.9078 63.4683 10.9078C63.2499 10.9078 63.0676 11.0054 62.9214 11.2005C62.7751 11.3956 62.7021 11.661 62.7021 11.9967V13.5387H61.9644V10.3162H62.7021V10.9803H62.7148C62.7868 10.7536 62.8976 10.5769 63.047 10.4499C63.1964 10.323 63.3634 10.2595 63.5478 10.2595C63.6813 10.2595 63.783 10.2795 63.853 10.3194V11.0117Z" fill="black"/>
<path d="M65.741 13.6143C65.2387 13.6143 64.8375 13.4638 64.5376 13.1627C64.2377 12.8617 64.0878 12.4625 64.0878 11.9653C64.0878 11.424 64.244 11.0013 64.5568 10.697C64.8694 10.3929 65.2906 10.2407 65.8206 10.2407C66.3293 10.2407 66.7256 10.3886 67.0097 10.6844C67.2937 10.9803 67.4357 11.3904 67.4357 11.9149C67.4357 12.429 67.2825 12.8407 66.9763 13.1501C66.67 13.4596 66.2582 13.6143 65.741 13.6143ZM65.776 10.8229C65.4877 10.8229 65.26 10.9226 65.0924 11.1219C64.9249 11.3212 64.8412 11.596 64.8412 11.9464C64.8412 12.2842 64.926 12.5501 65.0956 12.7442C65.2652 12.9382 65.4919 13.0353 65.776 13.0353C66.0664 13.0353 66.2895 12.9398 66.4453 12.7489C66.6011 12.558 66.679 12.2863 66.679 11.9339C66.679 11.5793 66.6011 11.3055 66.4453 11.1125C66.2896 10.9195 66.0664 10.8229 65.776 10.8229Z" fill="black"/>
<path d="M73.0342 13.5388H72.2966V11.7828C72.2966 11.445 72.2483 11.2006 72.1519 11.0496C72.0555 10.8985 71.8928 10.8229 71.6638 10.8229C71.4709 10.8229 71.3072 10.9184 71.1726 11.1093C71.0379 11.3003 70.9707 11.529 70.9707 11.7954V13.5388H70.2299V11.723C70.2299 11.123 70.0158 10.8229 69.5877 10.8229C69.3885 10.8229 69.2248 10.9132 69.0965 11.0936C68.9682 11.2741 68.9041 11.508 68.9041 11.7954V13.5388H68.1664V10.3163H68.9041V10.8261H68.9168C69.1521 10.4358 69.4943 10.2407 69.9437 10.2407C70.1684 10.2407 70.365 10.3021 70.5334 10.4249C70.702 10.5476 70.8169 10.7086 70.8784 10.908C71.12 10.4632 71.4803 10.2407 71.9594 10.2407C72.6758 10.2407 73.034 10.6782 73.034 11.5531V13.5388H73.0342Z" fill="black"/>
<path d="M35.6763 16.9299L34.0389 22.8438H32.9181L31.7808 18.7074C31.7334 18.5316 31.7043 18.339 31.6933 18.1301H31.6765C31.6625 18.3254 31.6293 18.515 31.5766 18.6993L30.4348 22.8438H29.2891L27.6183 16.9299H28.7058L29.789 21.2602C29.8334 21.4416 29.8612 21.6313 29.8724 21.8292H29.8932C29.9043 21.689 29.9433 21.4993 30.0099 21.2602L31.2349 16.9299H32.2556L33.3889 21.2931C33.4278 21.4416 33.4569 21.6176 33.4764 21.8211H33.493C33.5014 21.6836 33.5333 21.5021 33.5889 21.2766L34.6513 16.9299H35.6763Z" fill="black"/>
<path d="M36.748 17.734C36.5897 17.734 36.4542 17.6832 36.3417 17.5814C36.2293 17.4797 36.173 17.3505 36.173 17.1938C36.173 17.037 36.2293 16.9065 36.3417 16.8019C36.4542 16.6974 36.5897 16.6451 36.748 16.6451C36.9118 16.6451 37.0507 16.6974 37.1646 16.8019C37.2785 16.9065 37.3354 17.037 37.3354 17.1938C37.3354 17.3421 37.2785 17.4694 37.1646 17.5752C37.0507 17.6811 36.9118 17.734 36.748 17.734ZM37.2271 22.8437H36.2604V18.6208H37.2271V22.8437Z" fill="black"/>
<path d="M42.1529 22.8437H41.1863V20.4642C41.1863 19.6751 40.9043 19.2806 40.3405 19.2806C40.046 19.2806 39.803 19.3898 39.6114 19.6085C39.4196 19.827 39.3239 20.1026 39.3239 20.4352V22.8436H38.353V18.6207H39.3239V19.3218H39.3405C39.6599 18.7885 40.121 18.5217 40.7238 18.5217C41.1876 18.5217 41.5418 18.671 41.7862 18.9692C42.0306 19.2676 42.1529 19.6985 42.1529 20.2621V22.8437Z" fill="black"/>
<path d="M47.0745 22.8437H46.1078V22.1261H46.0911C45.78 22.6705 45.3008 22.9427 44.6537 22.9427C44.1287 22.9427 43.7086 22.7537 43.3934 22.3756C43.0781 21.9976 42.9205 21.4828 42.9205 20.8311C42.9205 20.1329 43.0948 19.5734 43.4434 19.1527C43.7919 18.7321 44.2565 18.5217 44.8371 18.5217C45.412 18.5217 45.83 18.7499 46.0912 19.2063H46.1078V16.5917H47.0745V22.8437H47.0745ZM46.1204 20.9137V20.361C46.1204 20.0615 46.0217 19.8071 45.8246 19.5981C45.6273 19.3892 45.3759 19.2847 45.0705 19.2847C44.7093 19.2847 44.4252 19.418 44.2185 19.6847C44.0115 19.9514 43.9081 20.3212 43.9081 20.7941C43.9081 21.223 44.0074 21.5619 44.2059 21.8106C44.4045 22.0595 44.6719 22.1839 45.0081 22.1839C45.3386 22.1839 45.6066 22.0636 45.8122 21.823C46.0177 21.5824 46.1204 21.2794 46.1204 20.9137Z" fill="black"/>
<path d="M50.092 22.9427C49.4336 22.9427 48.908 22.7454 48.515 22.3508C48.1219 21.9564 47.9254 21.4332 47.9254 20.7817C47.9254 20.0724 48.1302 19.5184 48.54 19.1197C48.9497 18.7211 49.5017 18.5217 50.1961 18.5217C50.8628 18.5217 51.3822 18.7155 51.7545 19.1032C52.1266 19.4909 52.3127 20.0285 52.3127 20.7157C52.3127 21.3893 52.112 21.9288 51.7107 22.3344C51.3092 22.7399 50.7697 22.9427 50.092 22.9427ZM50.1378 19.2847C49.76 19.2847 49.4613 19.4153 49.242 19.6765C49.0226 19.9378 48.9128 20.2979 48.9128 20.757C48.9128 21.1996 49.0239 21.5482 49.2462 21.8024C49.4684 22.0567 49.7656 22.184 50.1378 22.184C50.5183 22.184 50.8107 22.0588 51.0148 21.8086C51.2189 21.5584 51.321 21.2024 51.321 20.7405C51.321 20.2759 51.2189 19.917 51.0148 19.6641C50.8106 19.4112 50.5183 19.2847 50.1378 19.2847Z" fill="black"/>
<path d="M58.8967 18.6207L57.6384 22.8437H56.6259L55.851 19.9816C55.8205 19.8717 55.801 19.7479 55.7927 19.6105H55.776C55.7705 19.704 55.7455 19.825 55.701 19.9734L54.8594 22.8437H53.8678L52.6136 18.6207H53.6135L54.3885 21.6643C54.4135 21.7549 54.4301 21.8759 54.4385 22.0272H54.4677C54.476 21.9116 54.4982 21.7879 54.5344 21.656L55.3967 18.6207H56.3051L57.0717 21.6766C57.0967 21.7728 57.1147 21.8937 57.1259 22.0395H57.1551C57.1606 21.9378 57.1814 21.8167 57.2176 21.6766L57.9758 18.6207H58.8967Z" fill="black"/>
<path d="M61.5193 22.6086V21.5983C61.611 21.6807 61.72 21.755 61.8464 21.8209C61.9727 21.8869 62.1068 21.9426 62.2484 21.9879C62.3901 22.0333 62.5317 22.0685 62.6734 22.0932C62.8151 22.118 62.9456 22.1302 63.0651 22.1302C63.4817 22.1302 63.7921 22.0617 63.9963 21.9241C64.2004 21.7867 64.3025 21.5874 64.3025 21.3261C64.3025 21.1859 64.2684 21.0643 64.2004 20.9611C64.1323 20.858 64.0372 20.7639 63.915 20.6787C63.7927 20.5936 63.649 20.5116 63.4838 20.4333C63.3185 20.355 63.1414 20.2732 62.9526 20.1879C62.7497 20.0807 62.5609 19.9721 62.3859 19.8621C62.2109 19.7522 62.0588 19.6306 61.9296 19.4972C61.8005 19.3638 61.6991 19.2133 61.6255 19.0456C61.5518 18.8778 61.5151 18.6812 61.5151 18.4558C61.5151 18.1781 61.5783 17.9369 61.7047 17.732C61.8311 17.5272 61.9977 17.3581 62.2047 17.2248C62.4116 17.0914 62.647 16.9924 62.9108 16.9278C63.1747 16.8633 63.4442 16.8309 63.7192 16.8309C64.3442 16.8309 64.7997 16.901 65.0858 17.0412V18.0103C64.7468 17.7685 64.3108 17.6474 63.7775 17.6474C63.6302 17.6474 63.4838 17.6612 63.3379 17.6887C63.1921 17.7162 63.0616 17.7616 62.9463 17.8248C62.831 17.8881 62.7373 17.9691 62.665 18.0681C62.5928 18.1671 62.5567 18.2866 62.5567 18.4269C62.5567 18.5589 62.5844 18.673 62.64 18.7691C62.6956 18.8654 62.7769 18.9535 62.8837 19.0331C62.9906 19.1129 63.1213 19.1905 63.2754 19.2661C63.4295 19.3418 63.6079 19.4236 63.8108 19.5115C64.0191 19.6187 64.2156 19.7315 64.4003 19.8496C64.585 19.9679 64.7475 20.0985 64.8878 20.2415C65.028 20.3844 65.1392 20.5432 65.2211 20.7177C65.3031 20.8924 65.344 21.0909 65.344 21.3136C65.344 21.6133 65.2829 21.8662 65.1607 22.0725C65.0384 22.2786 64.8739 22.4464 64.667 22.5756C64.46 22.7049 64.2218 22.7984 63.9524 22.8561C63.6829 22.9138 63.3982 22.9427 63.0982 22.9427C62.9983 22.9427 62.8753 22.9351 62.7295 22.92C62.5837 22.9048 62.4343 22.883 62.2816 22.854C62.1289 22.8251 61.9844 22.7901 61.8483 22.7488C61.7124 22.7075 61.6026 22.6609 61.5193 22.6086Z" fill="black"/>
<path d="M68.1991 22.7983C68.0102 22.8918 67.7617 22.9386 67.4533 22.9386C66.6256 22.9386 66.2117 22.5455 66.2117 21.7591V19.3714H65.4993V18.6209H66.2117V17.6434L67.1783 17.3713V18.6209H68.1991V19.3714H67.1783V21.4828C67.1783 21.7331 67.2242 21.9118 67.3158 22.019C67.4076 22.1262 67.5603 22.1798 67.7742 22.1798C67.938 22.1798 68.0797 22.1331 68.1992 22.0396V22.7983H68.1991Z" fill="black"/>
<path d="M70.7374 22.9427C70.0791 22.9427 69.5534 22.7454 69.1604 22.3508C68.7673 21.9564 68.5708 21.4332 68.5708 20.7817C68.5708 20.0724 68.7757 19.5184 69.1855 19.1197C69.5952 18.7211 70.1472 18.5217 70.8416 18.5217C71.5082 18.5217 72.0277 18.7155 72.4 19.1032C72.7721 19.4909 72.9582 20.0285 72.9582 20.7157C72.9582 21.3893 72.7574 21.9288 72.3561 22.3344C71.9546 22.7399 71.4151 22.9427 70.7374 22.9427ZM70.7833 19.2847C70.4054 19.2847 70.1068 19.4153 69.8874 19.6765C69.668 19.9378 69.5583 20.2979 69.5583 20.757C69.5583 21.1996 69.6694 21.5482 69.8916 21.8024C70.1139 22.0567 70.4111 22.184 70.7833 22.184C71.1638 22.184 71.4562 22.0588 71.6603 21.8086C71.8644 21.5584 71.9665 21.2024 71.9665 20.7405C71.9665 20.2759 71.8644 19.917 71.6603 19.6641C71.4562 19.4112 71.1638 19.2847 70.7833 19.2847Z" fill="black"/>
<path d="M76.2799 19.5322C76.1632 19.4414 75.9951 19.396 75.7758 19.396C75.4897 19.396 75.2508 19.5238 75.0591 19.7796C74.8675 20.0352 74.7716 20.3831 74.7716 20.8229V22.8437H73.8049V18.6207H74.7716V19.4909H74.7883C74.8826 19.194 75.0279 18.9624 75.2237 18.7961C75.4195 18.6297 75.6383 18.5465 75.8799 18.5465C76.0549 18.5465 76.1882 18.5726 76.2799 18.6249V19.5322Z" fill="black"/>
<path d="M80.3639 20.9921H77.4557C77.4667 21.3825 77.5883 21.6835 77.8203 21.8952C78.0522 22.107 78.3709 22.2127 78.7765 22.2127C79.232 22.2127 79.65 22.078 80.0306 21.8086V22.5797C79.6418 22.8217 79.1279 22.9426 78.4891 22.9426C77.8613 22.9426 77.3689 22.7509 77.012 22.3673C76.6551 21.9837 76.4766 21.4442 76.4766 20.7486C76.4766 20.0916 76.6732 19.5561 77.0662 19.1423C77.4592 18.7285 77.9474 18.5216 78.5307 18.5216C79.1139 18.5216 79.5652 18.7072 79.8847 19.0783C80.2042 19.4495 80.3639 19.965 80.3639 20.6248V20.9921ZM79.4306 20.3157C79.4278 19.972 79.3459 19.7046 79.1848 19.5136C79.0237 19.3226 78.8015 19.227 78.5182 19.227C78.2403 19.227 78.005 19.3274 77.812 19.528C77.6189 19.7288 77.5002 19.9914 77.4557 20.3157H79.4306Z" fill="black"/>
</g>
<defs>
<clipPath id="clip0_79_369">
<rect width="86.8966" height="30" fill="white" transform="translate(0 0.872803)"/>
</clipPath>
</defs>
</svg>
