<svg width="86" height="31" viewBox="0 0 86 31" fill="none" xmlns="http://www.w3.org/2000/svg">
<g clip-path="url(#clip0_79_367)">
<path d="M79.967 2.95042C81.4838 2.95042 82.5131 3.2392 83.1136 3.83339C83.7139 4.42724 84.0058 5.44765 84.0058 6.9528V24.9038C84.0058 26.4046 83.7151 27.4193 83.1171 28.0059C82.5188 28.593 81.4884 28.8784 79.9674 28.8784H5.97672C4.4652 28.8784 3.44641 28.5955 2.86228 28.0135C2.27814 27.4317 1.99422 26.416 1.99422 24.9085V6.9528C1.99422 5.2271 2.18259 4.27657 2.62405 3.77438C3.11828 3.21228 4.18518 2.95042 5.98179 2.95042H79.967ZM79.967 1.78699H5.98179C1.56596 1.78699 0.830933 3.31616 0.830933 6.9528V24.9084C0.830933 28.5423 2.34337 30.0418 5.97672 30.0418H79.9673C83.6033 30.0418 85.1691 28.5403 85.1691 24.9038V6.9528C85.1691 3.31616 83.6031 1.78699 79.967 1.78699Z" fill="black"/>
<path d="M42.2667 17.9928C40.7091 17.9928 39.476 19.1612 39.476 20.7839C39.476 22.3417 40.7091 23.575 42.2667 23.575C43.8244 23.575 45.0575 22.4066 45.0575 20.7839C45.0575 19.0962 43.8244 17.9928 42.2667 17.9928ZM42.2667 22.4066C41.423 22.4066 40.7091 21.6926 40.7091 20.719C40.7091 19.7453 41.423 19.0312 42.2667 19.0312C43.1105 19.0312 43.8244 19.6804 43.8244 20.719C43.8244 21.6926 43.1105 22.4066 42.2667 22.4066ZM36.231 17.9928C34.6733 17.9928 33.4401 19.1612 33.4401 20.7839C33.4401 22.3417 34.6733 23.575 36.231 23.575C37.7886 23.575 39.0217 22.4066 39.0217 20.7839C39.0217 19.0962 37.7886 17.9928 36.231 17.9928ZM36.231 22.4066C35.3872 22.4066 34.6733 21.6926 34.6733 20.719C34.6733 19.7453 35.3872 19.0312 36.231 19.0312C37.0747 19.0312 37.7886 19.6804 37.7886 20.719C37.7886 21.6926 37.0747 22.4066 36.231 22.4066ZM29.0268 18.8366V20.005H31.8176C31.7527 20.6542 31.4931 21.1735 31.1686 21.498C30.7792 21.8875 30.1302 22.3417 29.0268 22.3417C27.2745 22.3417 25.9765 20.9787 25.9765 19.226C25.9765 17.4735 27.3394 16.1104 29.0268 16.1104C29.9355 16.1104 30.6493 16.4999 31.1686 16.9542L32.0123 16.1104C31.2984 15.4612 30.3898 14.942 29.0917 14.942C26.7553 14.942 24.7433 16.8894 24.7433 19.226C24.7433 21.5628 26.7552 23.5102 29.0917 23.5102C30.3898 23.5102 31.2984 23.1206 32.0772 22.2768C32.856 21.498 33.1157 20.3945 33.1157 19.5506C33.1157 19.2909 33.1157 19.0313 33.0508 18.8366H29.0268V18.8366ZM58.4922 19.7453C58.2326 19.0962 57.5835 17.9928 56.1557 17.9928C54.7278 17.9928 53.5597 19.0962 53.5597 20.7839C53.5597 22.3417 54.7278 23.575 56.2855 23.575C57.5187 23.575 58.2976 22.7961 58.557 22.3417L57.6484 21.6926C57.3239 22.147 56.9345 22.4715 56.2855 22.4715C55.6365 22.4715 55.2471 22.2119 54.9226 21.6277L58.6219 20.0699L58.4922 19.7453ZM54.7278 20.6541C54.7278 19.6155 55.5716 19.0313 56.1558 19.0313C56.61 19.0313 57.0644 19.2909 57.1942 19.6155L54.7278 20.6541ZM51.6775 23.3153H52.9107V15.2016H51.6775V23.3153ZM49.7305 18.5769C49.4059 18.2524 48.8867 17.9278 48.2377 17.9278C46.8748 17.9278 45.5767 19.1611 45.5767 20.719C45.5767 22.2767 46.8099 23.4452 48.2377 23.4452C48.8867 23.4452 49.4059 23.1206 49.6656 22.796H49.7305V23.1855C49.7305 24.2242 49.1463 24.8083 48.2377 24.8083C47.5238 24.8083 47.0045 24.2891 46.8748 23.8346L45.8364 24.2891C46.1608 25.0031 46.9397 25.9117 48.3027 25.9117C49.7305 25.9117 50.8986 25.068 50.8986 23.0556V18.1226H49.7305V18.5769ZM48.3026 22.4066C47.4589 22.4066 46.745 21.6926 46.745 20.719C46.745 19.7453 47.4589 19.0312 48.3026 19.0312C49.1462 19.0312 49.7954 19.7453 49.7954 20.719C49.7954 21.6926 49.1463 22.4066 48.3026 22.4066ZM64.1386 15.2016H61.218V23.3153H62.4511V20.2646H64.1386C65.5014 20.2646 66.7994 19.2909 66.7994 17.7331C66.7994 16.1753 65.5015 15.2016 64.1386 15.2016ZM64.2035 19.0962H62.4511V16.3051H64.2035C65.1122 16.3051 65.6314 17.0841 65.6314 17.6681C65.5664 18.3822 65.0472 19.0962 64.2035 19.0962ZM71.6672 17.9279C70.7585 17.9279 69.8499 18.3174 69.5255 19.1612L70.6287 19.6156C70.8884 19.1612 71.2778 19.0314 71.7321 19.0314C72.381 19.0314 72.9652 19.421 73.0301 20.0699V20.1348C72.8354 20.005 72.3161 19.8103 71.797 19.8103C70.6286 19.8103 69.4605 20.4595 69.4605 21.6278C69.4605 22.7313 70.434 23.4453 71.4724 23.4453C72.3161 23.4453 72.7056 23.0557 73.0301 22.6664H73.0949V23.3154H74.2632V20.1998C74.1335 18.7717 73.0301 17.9279 71.6672 17.9279ZM71.5373 22.4066C71.1479 22.4066 70.5637 22.2119 70.5637 21.6926C70.5637 21.0435 71.2777 20.8488 71.8618 20.8488C72.381 20.8488 72.6406 20.9787 72.9651 21.1085C72.8354 21.8874 72.1863 22.4066 71.5373 22.4066ZM78.352 18.1226L76.989 21.6277H76.9242L75.4964 18.1226H74.1983L76.3401 23.0556L75.1069 25.782H76.3401L79.6501 18.1226H78.352ZM67.4485 23.3153H68.6817V15.2016H67.4485V23.3153Z" fill="black"/>
<path d="M27.0068 10.3821H29.0289C29.0405 10.4282 29.05 10.4839 29.0578 10.5492C29.0653 10.6145 29.0692 10.6798 29.0692 10.7451C29.0692 11.0102 29.0289 11.2599 28.9483 11.4941C28.8677 11.7284 28.7409 11.9378 28.568 12.1221C28.3837 12.318 28.1628 12.4699 27.9055 12.5773C27.6482 12.6848 27.3544 12.7386 27.0241 12.7386C26.7246 12.7386 26.4422 12.6848 26.1772 12.5773C25.9123 12.4699 25.6818 12.32 25.4859 12.1279C25.29 11.9358 25.1345 11.7082 25.0193 11.4451C24.904 11.182 24.8464 10.8949 24.8464 10.5838C24.8464 10.2726 24.904 9.98551 25.0193 9.72241C25.1345 9.4593 25.29 9.23169 25.4859 9.03955C25.6818 8.84759 25.9123 8.69775 26.1772 8.59022C26.4422 8.48268 26.7246 8.42883 27.0241 8.42883C27.3582 8.42883 27.6569 8.48642 27.9199 8.60169C28.183 8.71695 28.4087 8.87634 28.5969 9.07994L28.0611 9.60424C27.9266 9.46221 27.7768 9.3536 27.6117 9.27872C27.4465 9.20376 27.2488 9.16637 27.0184 9.16637C26.8302 9.16637 26.6515 9.20002 26.4825 9.26717C26.3135 9.3344 26.1657 9.42947 26.039 9.55238C25.9123 9.67537 25.8114 9.82421 25.7365 9.99889C25.6616 10.1737 25.6242 10.3687 25.6242 10.5838C25.6242 10.7989 25.6616 10.9938 25.7365 11.1686C25.8114 11.3434 25.9131 11.4922 26.0419 11.6151C26.1705 11.7381 26.3193 11.8331 26.4883 11.9004C26.6573 11.9676 26.8377 12.0012 27.0298 12.0012C27.2488 12.0012 27.4341 11.9695 27.5858 11.9061C27.7375 11.8427 27.8672 11.7612 27.9747 11.6612C28.0515 11.592 28.1177 11.5047 28.1734 11.399C28.229 11.2935 28.2722 11.1753 28.3031 11.0447H27.0068V10.3821V10.3821Z" fill="black"/>
<path d="M30.4923 9.25853V10.215H32.1456V10.9525H30.4923V11.909H32.33V12.6465H29.7145V8.521H32.33V9.25853H30.4923Z" fill="black"/>
<path d="M33.92 12.6465V9.25853H32.7678V8.521H35.85V9.25853H34.6977V12.6465H33.92Z" fill="black"/>
<path d="M38.4481 8.521H37.6703V12.6465H38.4481V8.521Z" fill="black"/>
<path d="M40.1533 12.6465V9.25853H39.001V8.521H42.0832V9.25853H40.931V12.6465H40.1533Z" fill="black"/>
<path d="M45.7414 12.7387C45.4341 12.7387 45.1489 12.6829 44.8859 12.5716C44.6227 12.4602 44.3953 12.3076 44.2032 12.1135C44.0111 11.9196 43.8604 11.691 43.751 11.4278C43.6416 11.1648 43.5867 10.8833 43.5867 10.5838C43.5867 10.2841 43.6415 10.0028 43.751 9.73969C43.8605 9.47659 44.0112 9.24806 44.2032 9.05401C44.3953 8.86005 44.6227 8.70739 44.8859 8.59595C45.1489 8.48459 45.4341 8.42883 45.7414 8.42883C46.0486 8.42883 46.3338 8.48459 46.597 8.59595C46.86 8.70739 47.0875 8.86005 47.2797 9.05401C47.4717 9.24806 47.6224 9.47659 47.7319 9.73969C47.8413 10.0028 47.8961 10.2841 47.8961 10.5838C47.8961 10.8833 47.8414 11.1648 47.7319 11.4278C47.6224 11.691 47.4716 11.9196 47.2797 12.1135C47.0875 12.3076 46.86 12.4602 46.597 12.5716C46.3338 12.6829 46.0486 12.7387 45.7414 12.7387ZM45.7414 12.0012C45.9335 12.0012 46.1131 11.9666 46.28 11.8974C46.4471 11.8283 46.5931 11.7323 46.7179 11.6093C46.8427 11.4864 46.9407 11.3377 47.0117 11.1628C47.0827 10.9881 47.1183 10.795 47.1183 10.5838C47.1183 10.3725 47.0827 10.1796 47.0117 10.0047C46.9407 9.82994 46.8427 9.68119 46.7179 9.5582C46.5931 9.43529 46.4471 9.33922 46.28 9.27008C46.113 9.20094 45.9334 9.16637 45.7414 9.16637C45.5494 9.16637 45.3698 9.20094 45.2028 9.27008C45.0357 9.33922 44.8897 9.43529 44.7649 9.5582C44.64 9.68119 44.5421 9.82994 44.4712 10.0047C44.4 10.1796 44.3646 10.3725 44.3646 10.5838C44.3646 10.795 44.4 10.9881 44.4712 11.1628C44.5421 11.3377 44.64 11.4864 44.7649 11.6093C44.8897 11.7323 45.0357 11.8283 45.2028 11.8974C45.3699 11.9666 45.5494 12.0012 45.7414 12.0012Z" fill="black"/>
<path d="M48.5239 8.521H49.4284L51.0876 11.2866H51.1337L51.0876 10.4915V8.521H51.8596V12.6465H51.0414L49.2901 9.72523H49.244L49.2901 10.5204V12.6465H48.5239V8.521Z" fill="black"/>
<path fill-rule="evenodd" clip-rule="evenodd" d="M18.84 13.4265L8.74469 7.61743L16.719 15.5516L18.84 13.4265Z" fill="black"/>
<path fill-rule="evenodd" clip-rule="evenodd" d="M7.80797 7.67676C7.7695 7.74673 7.72754 7.82759 7.72754 7.91667V24.3548C7.72754 24.4064 7.75438 24.455 7.76817 24.5007L16.2131 16.0396L7.80797 7.67676Z" fill="black"/>
<path fill-rule="evenodd" clip-rule="evenodd" d="M16.7207 16.5256L8.44122 24.8209C8.4654 24.8116 8.48942 24.8007 8.51293 24.7873L18.9741 18.7676L16.7207 16.5256Z" fill="black"/>
<path fill-rule="evenodd" clip-rule="evenodd" d="M22.7966 15.7032L19.4586 13.7825L17.2076 16.0378L19.5933 18.4114L22.7966 16.5682C23.1301 16.3764 23.1301 15.8951 22.7966 15.7032Z" fill="black"/>
</g>
<defs>
<clipPath id="clip0_79_367">
<rect width="86" height="30" fill="white" transform="translate(0 0.872803)"/>
</clipPath>
</defs>
</svg>
