<svg width="86" height="31" viewBox="0 0 86 31" fill="none" xmlns="http://www.w3.org/2000/svg">
<g clip-path="url(#clip0_79_368)">
<path d="M79.9671 2.95042C81.4838 2.95042 82.5131 3.2392 83.1136 3.83339C83.7139 4.42724 84.0058 5.44765 84.0058 6.9528V24.9038C84.0058 26.4046 83.7151 27.4193 83.1171 28.0059C82.5188 28.593 81.4884 28.8784 79.9674 28.8784H5.97672C4.4652 28.8784 3.44641 28.5955 2.86228 28.0135C2.27814 27.4317 1.99422 26.416 1.99422 24.9085V6.9528C1.99422 5.2271 2.18259 4.27657 2.62405 3.77438C3.11828 3.21228 4.18518 2.95042 5.98179 2.95042H79.9671ZM79.9671 1.78699H5.98179C1.56596 1.78699 0.830933 3.31616 0.830933 6.9528V24.9084C0.830933 28.5423 2.34337 30.0418 5.97672 30.0418H79.9673C83.6033 30.0418 85.1691 28.5403 85.1691 24.9038V6.9528C85.1691 3.31616 83.6032 1.78699 79.9671 1.78699Z" fill="black"/>
<path fill-rule="evenodd" clip-rule="evenodd" d="M22.8193 19.3746C22.3946 20.3162 22.1913 20.7366 21.6444 21.5688C20.8811 22.7308 19.8058 24.1777 18.4732 24.1898C17.2888 24.2008 16.9847 23.419 15.3776 23.4278C13.7706 23.4365 13.4349 24.2035 12.2504 24.1927C10.9177 24.1805 9.89858 22.8736 9.13538 21.712C7.00142 18.4631 6.77848 14.6503 8.09432 12.6234C9.02977 11.1829 10.5049 10.3396 11.8924 10.3396C13.3049 10.3396 14.1929 11.1145 15.3608 11.1145C16.4936 11.1145 17.1842 10.3384 18.8171 10.3384C20.0515 10.3384 21.3594 11.0104 22.2915 12.1732C19.2381 13.8467 19.7339 18.2085 22.8193 19.3746Z" fill="black"/>
<path fill-rule="evenodd" clip-rule="evenodd" d="M17.5783 9.04064C18.1713 8.27909 18.6222 7.20308 18.4587 6.10388C17.4897 6.17061 16.3557 6.78732 15.6936 7.59133C15.0928 8.32139 14.5968 9.40397 14.79 10.456C15.848 10.4887 16.9427 9.85671 17.5783 9.04064Z" fill="black"/>
<path fill-rule="evenodd" clip-rule="evenodd" d="M77.6386 20.9006H73.3481C73.365 21.4823 73.5725 21.9924 73.9711 22.327C74.332 22.6278 74.7992 22.765 75.3739 22.765C76.0104 22.765 76.5871 22.6573 77.1085 22.4512L77.3334 23.4423C76.7267 23.7094 76.0057 23.837 75.1741 23.837C74.1787 23.837 73.3951 23.5444 72.8257 22.9576C72.2568 22.3709 71.97 21.5824 71.97 20.5945C71.97 19.6216 72.236 18.8154 72.7642 18.1681C73.323 17.4806 74.0731 17.137 75.016 17.137C75.9456 17.137 76.6466 17.4805 77.1216 18.168C77.4998 18.7169 77.6909 19.42 77.6909 20.2235C77.6909 20.4776 77.6724 20.7344 77.6386 20.9006ZM71.5421 18.5395C71.459 18.5138 71.2385 18.5032 71.0807 18.5032C70.5777 18.5032 70.1849 18.6927 69.9106 19.0716C69.6717 19.4078 69.5479 19.8252 69.5479 20.3415V23.6429H68.1353V19.3062C68.1353 18.5689 68.1047 17.9089 68.0795 17.244H69.3237L69.3769 18.5737H69.416C69.5655 18.1582 69.8025 17.7803 70.131 17.5263C70.4487 17.2942 70.8056 17.1679 71.1761 17.1679C71.3071 17.1679 71.459 17.1598 71.5421 17.1772V18.5395ZM66.3719 22.8857C65.7789 23.5373 64.9934 23.8636 64.0158 23.8636C63.0696 23.8636 62.3151 23.5504 61.7549 22.9234C61.1953 22.2984 60.9161 21.5052 60.9161 20.553C60.9161 19.5565 61.2045 18.7388 61.7825 18.1042C62.3616 17.466 63.1383 17.1526 64.1178 17.1526C65.0659 17.1526 65.8244 17.4626 66.3981 18.0925C66.9436 18.6982 67.2174 19.4864 67.2174 20.4476C67.2175 21.4391 66.937 22.2481 66.3719 22.8857ZM60.4909 18.4075H58.9952V21.4818C58.9952 22.2757 59.2416 22.6693 59.7977 22.6693C60.0536 22.6693 60.2467 22.6506 60.416 22.607L60.4482 23.6902C60.1651 23.7961 59.7909 23.8499 59.3319 23.8499C58.7697 23.8499 58.3103 23.68 57.9935 23.3332C57.6727 22.9906 57.4996 22.4115 57.4996 21.5994V18.4075H56.5856V17.244H57.4996V16.1042L58.9952 15.6803V17.244H60.4909V18.4075ZM55.4648 23.068C54.881 23.5897 54.0715 23.8489 53.0332 23.8489C52.0709 23.8489 51.3015 23.6626 50.7204 23.2935L51.0526 22.102C51.6788 22.471 52.3668 22.6583 53.1154 22.6583C53.6561 22.6583 54.0743 22.5353 54.3748 22.2944C54.6733 22.0524 54.8234 21.7283 54.8234 21.3171C54.8234 20.9601 54.6997 20.6552 54.4541 20.4066C54.2047 20.1599 53.7975 19.9321 53.2231 19.7183C51.6624 19.1373 50.8806 18.2854 50.8806 17.1644C50.8806 16.432 51.1532 15.8297 51.7059 15.3624C52.2576 14.8957 52.9879 14.6609 53.8981 14.6609C54.7098 14.6609 55.3855 14.8032 55.9248 15.0838L55.5639 16.2496C55.0609 15.9767 54.4891 15.8384 53.8515 15.8384C53.3474 15.8384 52.9521 15.9667 52.6678 16.2081C52.43 16.4319 52.3106 16.7011 52.3106 17.0178C52.3106 17.3685 52.4476 17.6612 52.7206 17.8941C52.9597 18.105 53.3924 18.3332 54.0168 18.5801C54.7874 18.8867 55.3503 19.2509 55.7135 19.6671C56.0745 20.0817 56.2563 20.5972 56.2563 21.2142C56.2561 21.9743 55.9906 22.5939 55.4648 23.068ZM47.203 23.0182C46.6701 23.5808 46.0053 23.8635 45.2144 23.8635C44.3628 23.8635 43.7894 23.5596 43.374 22.948V26.3853H41.9614V19.3967C41.9614 18.7088 41.9351 18.0751 41.9007 17.244H43.1551L43.2379 18.3244H43.2624C43.7424 17.5765 44.4635 17.1639 45.4345 17.1639C46.1941 17.1639 46.8274 17.4558 47.3347 18.0575C47.8435 18.6564 48.0967 19.4455 48.0967 20.4247C48.0967 21.5223 47.7996 22.3811 47.203 23.0182ZM40.1335 23.0182C39.6019 23.5808 38.9382 23.8635 38.1494 23.8635C37.2953 23.8635 36.7266 23.5596 36.3112 22.948V26.3853H34.8986V19.3967C34.8986 18.7088 34.8659 18.0751 34.8295 17.244H36.0874L36.1664 18.3244H36.1913C36.6705 17.5765 37.3931 17.1639 38.3654 17.1639C39.1244 17.1639 39.7561 17.4558 40.2667 18.0575C40.7724 18.6564 41.0271 19.4455 41.0271 20.4247C41.0271 21.5223 40.73 22.3811 40.1335 23.0182ZM32.4866 23.6429L31.6534 21.0668H28.753L27.9574 23.6429H26.4761L29.3466 14.751H31.1227L34.0105 23.6429H32.4866ZM74.9104 18.1283C74.4436 18.1283 74.0644 18.3674 73.7718 18.7535C73.5339 19.0617 73.3912 19.4047 73.3481 19.9033H76.3267C76.3346 19.4047 76.2441 19.0763 76.0501 18.7657C75.802 18.3699 75.4213 18.1283 74.9104 18.1283ZM30.1956 15.9975H30.1707C30.0808 16.413 29.9415 16.9661 29.7455 17.7086L29.004 20.0695H31.3997L30.6482 17.7086C30.5668 17.4692 30.4151 16.8285 30.1956 15.9975ZM44.9716 18.2874C44.6173 18.2874 44.3008 18.4035 44.0127 18.6372C43.7258 18.8743 43.5324 19.1809 43.4436 19.5607C43.3996 19.7387 43.374 19.883 43.374 19.9986V21.0696C43.374 21.5384 43.5202 21.9347 43.8083 22.2569C44.0945 22.5761 44.4706 22.7382 44.9275 22.7382C45.4689 22.7382 45.8886 22.532 46.1891 22.1161C46.4898 21.7009 46.6413 21.1539 46.6413 20.4722C46.6413 19.8471 46.4993 19.3301 46.2178 18.9251C45.9065 18.5032 45.4915 18.2874 44.9716 18.2874ZM64.0656 18.1984C63.4934 18.1984 63.0561 18.4524 62.7577 18.9638C62.4989 19.3845 62.3721 19.8984 62.3721 20.506C62.3721 21.0983 62.4988 21.6031 62.7577 22.0249C63.0634 22.5353 63.4963 22.7893 64.055 22.7893C64.5987 22.7893 65.0287 22.5319 65.3359 22.009C65.6023 21.5819 65.7354 21.0694 65.7354 20.4813C65.7354 19.8924 65.6077 19.3845 65.3532 18.9637C65.049 18.4524 64.6224 18.1984 64.0656 18.1984ZM37.9001 18.2874C37.5477 18.2874 37.2293 18.4035 36.9416 18.6372C36.654 18.8743 36.4663 19.1809 36.3775 19.5607C36.334 19.7387 36.3112 19.883 36.3112 19.9986V21.0696C36.3112 21.5384 36.453 21.9347 36.7417 22.2569C37.028 22.5761 37.4021 22.7382 37.8602 22.7382C38.3975 22.7382 38.82 22.532 39.1196 22.1161C39.4196 21.7009 39.5684 21.1539 39.5684 20.4722C39.5684 19.8471 39.429 19.3301 39.1462 18.9251C38.8356 18.5032 38.4215 18.2874 37.9001 18.2874Z" fill="black"/>
<path d="M28.3595 11.2475L27.9632 12.5529H27.0953L28.5714 7.94629H29.6443L31.1409 12.5529H30.2389L29.822 11.2475H28.3595ZM29.6785 10.6119L29.3163 9.47729C29.2275 9.19707 29.1523 8.88269 29.0839 8.6161H29.0703C29.0019 8.88269 28.9335 9.20396 28.8516 9.47729L28.4962 10.6119H29.6785Z" fill="black"/>
<path d="M32.0979 9.22437L32.6379 10.9125C32.7335 11.2064 32.8018 11.473 32.8633 11.7464H32.8838C32.9453 11.473 33.0205 11.2133 33.1093 10.9125L33.6356 9.22437H34.524L33.2528 12.5529H32.426L31.1891 9.22437H32.0979Z" fill="black"/>
<path d="M36.8683 12.5529L36.8136 12.1838H36.7931C36.5881 12.4435 36.2396 12.6281 35.8091 12.6281C35.1393 12.6281 34.7634 12.1429 34.7634 11.637C34.7634 10.7964 35.5083 10.3726 36.7384 10.3794V10.3247C36.7384 10.106 36.6496 9.74377 36.0619 9.74377C35.7339 9.74377 35.3922 9.84632 35.1667 9.98983L35.0026 9.4431C35.2487 9.29269 35.6792 9.14917 36.2054 9.14917C37.2715 9.14917 37.579 9.82579 37.579 10.5504V11.7533C37.579 12.0539 37.5927 12.3479 37.6269 12.5529H36.8683ZM36.759 10.9262C36.1644 10.9125 35.5972 11.0424 35.5972 11.5482C35.5972 11.8763 35.8091 12.0266 36.0755 12.0266C36.4104 12.0266 36.6564 11.8079 36.7316 11.5687C36.7521 11.5072 36.759 11.4388 36.759 11.3841V10.9262Z" fill="black"/>
<path d="M39.3151 7.7002H38.4677V12.5529H39.3151V7.7002Z" fill="black"/>
<path d="M41.1192 8.29489C41.1192 8.54777 40.9348 8.74597 40.6409 8.74597C40.3607 8.74597 40.1762 8.54777 40.1762 8.29489C40.1762 8.0352 40.3675 7.83691 40.6477 7.83691C40.9348 7.83691 41.1124 8.0352 41.1192 8.29489ZM40.224 9.22439H41.0714V12.5529H40.224V9.22439Z" fill="black"/>
<path d="M41.9464 12.5529C41.96 12.3273 41.9737 11.9583 41.9737 11.6166V7.7002H42.8142V9.68227H42.828C43.0329 9.36108 43.3951 9.14917 43.894 9.14917C44.7072 9.14917 45.288 9.82579 45.2812 10.8374C45.2812 12.0335 44.5226 12.6281 43.7709 12.6281C43.3404 12.6281 42.9577 12.4641 42.7185 12.0539H42.7048L42.6638 12.5529H41.9464ZM42.8142 11.1791C42.8142 11.2474 42.8211 11.3158 42.8348 11.3773C42.9236 11.7122 43.2174 11.9651 43.5796 11.9651C44.1058 11.9651 44.4271 11.5414 44.4271 10.8716C44.4271 10.2838 44.1469 9.80535 43.5864 9.80535C43.2447 9.80535 42.9372 10.0514 42.8416 10.4205C42.828 10.482 42.8142 10.5572 42.8142 10.6392V11.1791Z" fill="black"/>
<path d="M46.8191 7.7002H45.9717V12.5529H46.8191V7.7002Z" fill="black"/>
<path d="M48.3226 11.1244C48.3432 11.7259 48.8147 11.9856 49.3477 11.9856C49.7373 11.9856 50.0175 11.9309 50.2704 11.8352L50.3934 12.4162C50.1063 12.5324 49.7099 12.6212 49.2317 12.6212C48.1519 12.6212 47.5162 11.9583 47.5162 10.9399C47.5162 10.0173 48.0766 9.14917 49.1428 9.14917C50.2225 9.14917 50.5778 10.0377 50.5778 10.769C50.5778 10.9262 50.5642 11.0492 50.5506 11.1244H48.3226ZM49.7851 10.5366C49.7919 10.2291 49.6553 9.72332 49.0948 9.72332C48.5754 9.72332 48.3568 10.1949 48.3226 10.5366H49.7851Z" fill="black"/>
<path d="M55.8333 10.8579C55.8333 12.0814 54.9722 12.6281 54.1247 12.6281C53.1816 12.6281 52.4573 11.9788 52.4573 10.9126C52.4573 9.81898 53.1748 9.14917 54.1795 9.14917C55.1704 9.14917 55.8333 9.8464 55.8333 10.8579ZM53.3253 10.8921C53.3253 11.5345 53.6396 12.0198 54.1522 12.0198C54.6304 12.0198 54.9654 11.5483 54.9654 10.8784C54.9654 10.359 54.733 9.76438 54.159 9.76438C53.5645 9.76438 53.3253 10.3384 53.3253 10.8921Z" fill="black"/>
<path d="M56.5239 10.2154C56.5239 9.83269 56.5169 9.51141 56.4965 9.22438H57.2345L57.2756 9.72332H57.296C57.4396 9.46355 57.8018 9.14917 58.3553 9.14917C58.9361 9.14917 59.5376 9.52504 59.5376 10.5776V12.5529H58.697V10.6734C58.697 10.1948 58.5194 9.83269 58.0615 9.83269C57.7267 9.83269 57.4944 10.0719 57.4055 10.3247C57.3782 10.3999 57.3713 10.5025 57.3713 10.5981V12.5529H56.524V10.2154H56.5239Z" fill="black"/>
<path d="M62.8112 8.27441V9.22444H63.6108V9.85328H62.8112V11.3227C62.8112 11.726 62.9206 11.9378 63.2417 11.9378C63.3853 11.9378 63.4946 11.9173 63.5698 11.8969L63.5834 12.5393C63.4604 12.5871 63.2417 12.6213 62.9753 12.6213C62.6676 12.6213 62.408 12.5188 62.2509 12.3479C62.0731 12.1565 61.9911 11.8558 61.9911 11.4184V9.85328H61.5128V9.22444H61.9911V8.47261L62.8112 8.27441Z" fill="black"/>
<path d="M64.2465 7.7002H65.0938V9.68227H65.1075C65.21 9.52504 65.3467 9.39524 65.5244 9.29959C65.6884 9.20385 65.8866 9.14917 66.0984 9.14917C66.6657 9.14917 67.2601 9.52504 67.2601 10.5913V12.5529H66.4196V10.687C66.4196 10.2017 66.2419 9.8395 65.7773 9.8395C65.4492 9.8395 65.2169 10.0582 65.1281 10.311C65.1008 10.3794 65.0939 10.4683 65.0939 10.564V12.5529H64.2465V7.7002H64.2465Z" fill="black"/>
<path d="M68.7503 11.1244C68.7708 11.7259 69.2423 11.9856 69.7754 11.9856C70.1649 11.9856 70.4452 11.9309 70.698 11.8352L70.821 12.4162C70.5339 12.5324 70.1376 12.6212 69.6592 12.6212C68.5795 12.6212 67.9438 11.9583 67.9438 10.9399C67.9438 10.0173 68.5042 9.14917 69.5704 9.14917C70.6501 9.14917 71.0054 10.0377 71.0054 10.769C71.0054 10.9262 70.9917 11.0492 70.9781 11.1244H68.7503ZM70.2128 10.5366C70.2196 10.2291 70.0829 9.72332 69.5225 9.72332C69.0031 9.72332 68.7845 10.1949 68.7503 10.5366H70.2128Z" fill="black"/>
</g>
<defs>
<clipPath id="clip0_79_368">
<rect width="86" height="30" fill="white" transform="translate(0 0.872803)"/>
</clipPath>
</defs>
</svg>
