<svg width="30" height="31" viewBox="0 0 30 31" fill="none" xmlns="http://www.w3.org/2000/svg">
<g clip-path="url(#clip0_71_3246)">
<path d="M15 22.6492C13.0109 22.6492 11.1032 21.859 9.6967 20.4525C8.29018 19.0459 7.5 17.1383 7.5 15.1492C7.5 13.16 8.29018 11.2524 9.6967 9.84587C11.1032 8.43935 13.0109 7.64917 15 7.64917C16.9891 7.64917 18.8968 8.43935 20.3033 9.84587C21.7098 11.2524 22.5 13.16 22.5 15.1492C22.5 17.1383 21.7098 19.0459 20.3033 20.4525C18.8968 21.859 16.9891 22.6492 15 22.6492ZM13.75 1.39917H16.25V5.14917H13.75V1.39917ZM13.75 25.1492H16.25V28.8992H13.75V25.1492ZM4.39375 6.31042L6.16125 4.54292L8.8125 7.19417L7.045 8.96167L4.39375 6.31167V6.31042ZM21.1875 23.1042L22.955 21.3367L25.6063 23.9879L23.8387 25.7554L21.1875 23.1042ZM23.8387 4.54167L25.6063 6.31042L22.955 8.96167L21.1875 7.19417L23.8387 4.54292V4.54167ZM7.045 21.3367L8.8125 23.1042L6.16125 25.7554L4.39375 23.9879L7.045 21.3367ZM28.75 13.8992V16.3992H25V13.8992H28.75ZM5 13.8992V16.3992H1.25V13.8992H5Z" fill="#FFF238"/>
</g>
<defs>
<clipPath id="clip0_71_3246">
<rect width="30" height="30" fill="white" transform="translate(0 0.14917)"/>
</clipPath>
</defs>
</svg>
