<svg width="42" height="35" viewBox="0 0 42 35" fill="none" xmlns="http://www.w3.org/2000/svg">
<path d="M31.9133 27.8383C30.0068 29.2108 27.7586 30.0308 25.4161 30.208C23.0737 30.3853 20.7277 29.913 18.6363 28.843C16.5449 27.7731 14.7892 26.1469 13.5624 24.1436C12.3355 22.1402 11.685 19.8373 11.6825 17.4881C11.6815 16.9919 11.7098 16.496 11.7675 16.0031C18.441 19.7737 24.4615 19.7603 25.128 19.7469H41.7447V17.4881C41.7498 13.6807 40.4979 9.97802 38.1831 6.95498C35.8684 3.93194 32.6204 1.75761 28.9434 0.769532C25.2664 -0.218549 21.3661 0.034891 17.8479 1.49051C14.3296 2.94613 11.3904 5.52249 9.48633 8.81966C7.28312 6.82067 5.39507 4.49982 3.88629 1.9359L0.00830078 4.24838C2.01199 7.6751 4.61301 10.7154 7.68823 13.2254C6.80778 16.7074 7.03334 20.377 8.33358 23.7249C9.63381 27.0728 11.9442 29.9327 14.944 31.9077C17.9437 33.8826 21.484 34.8745 25.0732 34.7456C28.6624 34.6167 32.1224 33.3735 34.9728 31.1885C34.2602 30.8701 33.6207 30.4082 33.0944 29.8319C32.568 29.2555 32.166 28.5769 31.9133 27.8383ZM24.4526 4.70014C27.4473 4.70345 30.3459 5.75728 32.6434 7.67803C34.941 9.59879 36.4918 12.2647 37.0258 15.2114H25.0385C24.6852 15.2114 19.1567 15.274 13.1362 11.5481C14.2191 9.48359 15.8457 7.75435 17.8403 6.54739C19.8348 5.34043 22.1213 4.70165 24.4526 4.70014Z" fill="url(#paint0_linear_71_3276)"/>
<defs>
<linearGradient id="paint0_linear_71_3276" x1="0.00830078" y1="17.4747" x2="41.7447" y2="17.4747" gradientUnits="userSpaceOnUse">
<stop offset="0.15625" stop-color="#0768B5"/>
<stop offset="0.572917" stop-color="#6FBAF7"/>
<stop offset="0.734375" stop-color="#B7D6EE"/>
<stop offset="1" stop-color="#86ABE2"/>
</linearGradient>
</defs>
</svg>
